<?xml version="1.0" encoding="utf-8"?>
<!-- Generator: Adobe Illustrator 26.3.1, SVG Export Plug-In . SVG Version: 6.00 Build 0)  -->
<svg version="1.1" xmlns="http://www.w3.org/2000/svg" xmlns:xlink="http://www.w3.org/1999/xlink" x="0px" y="0px"
	 viewBox="0 0 1200 1200" style="enable-background:new 0 0 1200 1200;" xml:space="preserve">
<style type="text/css">
	.st0{display:none;}
	.st1{display:inline;fill:#68B82B;}
	.st2{display:inline;}
	.st3{fill:#010201;}
	.st4{fill:#FFFFFF;}
	.st5{fill-rule:evenodd;clip-rule:evenodd;fill:#FFFFFF;}
	.st6{fill-rule:evenodd;clip-rule:evenodd;fill:#010201;}
	.st7{fill:#FEFEFE;}
	.st8{fill-rule:evenodd;clip-rule:evenodd;}
	.st9{fill:url(#SVGID_1_);}
	.st10{display:inline;fill-rule:evenodd;clip-rule:evenodd;fill:#010201;}
	.st11{display:inline;fill:url(#SVGID_00000036938297615204371070000016314441352175065777_);}
	.st12{display:inline;fill:#010201;}
	.st13{fill:#0667BA;}
	.st14{display:inline;fill:#0667BA;}
</style>
<g id="Background" class="st0">
	<rect class="st1" width="1200" height="1200"/>
</g>
<g id="Graphic_Elements" class="st0">
	<g class="st2">
		<path d="M174.1,127.8c-3.1-0.9-5.5-2.2-7.5-3.7c-1-0.8-1.5-1.8-1.5-3.2c0-0.9,0.3-1.8,0.8-2.4c0.6-0.7,1.2-1,2-1
			c0.8,0,1.7,0.3,2.7,0.9c1.9,1.4,3.9,2.4,6,3c2.1,0.6,4.4,0.9,7,0.9c3.3,0,5.8-0.6,7.5-1.7c1.7-1.1,2.6-2.8,2.6-5
			c0-1.7-0.8-3-2.4-3.9c-1.6-0.9-4.3-1.8-8.1-2.6c-3.9-0.8-7.1-1.8-9.6-2.9c-2.5-1.1-4.3-2.5-5.6-4.3c-1.2-1.7-1.9-3.9-1.9-6.6
			c0-2.8,0.8-5.2,2.3-7.4c1.6-2.2,3.7-3.9,6.5-5.1c2.8-1.2,5.9-1.8,9.4-1.8c6.4,0,11.6,1.7,15.6,5.1c0.6,0.5,1,1,1.2,1.4
			c0.2,0.5,0.4,1.1,0.4,1.8c0,0.9-0.3,1.8-0.8,2.4c-0.6,0.7-1.2,1-2,1c-0.4,0-0.9-0.1-1.2-0.2c-0.4-0.1-0.9-0.4-1.5-0.7
			c-1.8-1.3-3.6-2.3-5.3-3c-1.7-0.6-3.8-1-6.3-1c-3,0-5.4,0.6-7.2,1.8c-1.8,1.2-2.6,2.9-2.6,5.1c0,1.8,0.8,3.2,2.3,4.2
			c1.6,1,4.2,1.9,8,2.7c4,0.9,7.2,1.9,9.7,3c2.5,1.1,4.4,2.5,5.7,4.2c1.3,1.7,2,3.8,2,6.4c0,2.8-0.8,5.2-2.3,7.3
			c-1.5,2.1-3.7,3.8-6.5,5c-2.8,1.2-6,1.8-9.6,1.8C180.4,129.2,177.1,128.8,174.1,127.8z"/>
		<path d="M229.3,126.3c-3.4-2-6-4.8-7.8-8.4c-1.8-3.7-2.7-7.9-2.7-12.8c0-4.9,0.9-9.2,2.7-12.8c1.8-3.6,4.4-6.4,7.8-8.4
			c3.4-2,7.4-2.9,12-2.9c4.6,0,8.6,1,11.9,2.9c3.4,2,6,4.8,7.8,8.4c1.8,3.6,2.7,7.9,2.7,12.8c0,4.9-0.9,9.2-2.7,12.8
			c-1.8,3.7-4.4,6.5-7.8,8.4c-3.4,2-7.3,2.9-11.9,2.9C236.6,129.2,232.7,128.2,229.3,126.3z M251.4,117.8c2.4-3,3.6-7.3,3.6-12.8
			c0-5.6-1.2-9.8-3.6-12.8c-2.4-3-5.8-4.4-10.1-4.4c-4.4,0-7.8,1.5-10.2,4.4c-2.4,3-3.6,7.2-3.6,12.8c0,5.6,1.2,9.9,3.6,12.8
			c2.4,3,5.8,4.5,10.2,4.5C245.6,122.3,248.9,120.8,251.4,117.8z"/>
		<path d="M291.5,126.3c-3.4-2-6-4.8-7.9-8.4c-1.8-3.7-2.7-7.9-2.7-12.8c0-4.9,0.9-9.2,2.7-12.8c1.8-3.6,4.5-6.4,7.9-8.4
			c3.4-2,7.4-2.9,11.9-2.9c2.9,0,5.7,0.4,8.3,1.3c2.6,0.9,4.9,2.1,6.9,3.8c0.6,0.4,1,0.9,1.2,1.4c0.2,0.5,0.3,1.1,0.3,1.8
			c0,1-0.3,1.8-0.8,2.5c-0.5,0.7-1.2,1-1.9,1c-0.9,0-1.8-0.3-2.7-0.9c-1.9-1.4-3.7-2.4-5.4-3c-1.7-0.6-3.5-0.8-5.5-0.8
			c-4.6,0-8.2,1.5-10.5,4.3c-2.4,2.9-3.6,7.2-3.6,12.8c0,5.7,1.2,9.9,3.6,12.8c2.4,2.9,5.9,4.3,10.5,4.3c1.9,0,3.7-0.3,5.3-0.9
			c1.6-0.6,3.5-1.6,5.5-2.9c0.4-0.3,0.9-0.5,1.3-0.7c0.4-0.2,0.9-0.3,1.4-0.3c0.8,0,1.4,0.3,1.9,1c0.5,0.7,0.8,1.5,0.8,2.5
			c0,0.7-0.1,1.3-0.3,1.8c-0.2,0.5-0.6,1-1.2,1.4c-2,1.7-4.3,2.9-6.9,3.8c-2.6,0.9-5.4,1.3-8.3,1.3
			C298.9,129.2,294.9,128.2,291.5,126.3z"/>
		<path d="M339,127.8c-0.8-0.8-1.2-1.9-1.2-3.1V85.4c0-1.3,0.4-2.3,1.2-3.1c0.8-0.8,1.8-1.2,3.1-1.2c1.3,0,2.4,0.4,3.2,1.2
			c0.8,0.8,1.2,1.8,1.2,3.1v39.3c0,1.3-0.4,2.3-1.2,3.1c-0.8,0.8-1.8,1.2-3.2,1.2C340.8,129,339.7,128.6,339,127.8z"/>
		<path d="M409.8,125.2c0,1-0.4,1.9-1.2,2.6c-0.8,0.7-1.8,1.1-2.8,1.1c-0.7,0-1.4-0.2-2-0.6c-0.6-0.4-1.1-1-1.5-1.8l-4-9h-23.6l-4,9
			c-0.4,0.8-0.8,1.4-1.5,1.8c-0.6,0.4-1.3,0.6-2.1,0.6c-1,0-2-0.4-2.8-1.1c-0.8-0.7-1.3-1.6-1.3-2.6c0-0.6,0.1-1.2,0.4-1.7
			l18.5-39.7c0.4-0.9,1-1.6,1.8-2c0.8-0.5,1.7-0.7,2.6-0.7c0.9,0,1.8,0.2,2.6,0.7c0.8,0.5,1.4,1.1,1.8,2l18.5,39.7
			C409.7,124,409.8,124.6,409.8,125.2z M377.6,110.9h17.7L386.4,91L377.6,110.9z"/>
		<path d="M427.4,127.5c-0.7-0.7-1.1-1.7-1.1-2.9V85.4c0-1.3,0.4-2.3,1.2-3.1c0.8-0.8,1.8-1.2,3.1-1.2c1.3,0,2.4,0.4,3.2,1.2
			c0.8,0.8,1.2,1.8,1.2,3.1v36.1h18.8c2.7,0,4,1.2,4,3.5c0,2.4-1.3,3.5-4,3.5h-23.4C429.1,128.6,428.1,128.3,427.4,127.5z"/>
		<path d="M546.6,82.3c0.8,0.8,1.1,1.8,1.1,3.1V125c0,1.2-0.4,2.2-1.1,2.9c-0.7,0.7-1.7,1.1-2.8,1.1c-1.2,0-2.1-0.4-2.7-1.1
			c-0.7-0.7-1-1.7-1-2.9V97.4L528.7,119c-0.5,1-1.1,1.7-1.7,2.2c-0.6,0.5-1.4,0.7-2.2,0.7c-0.8,0-1.6-0.2-2.2-0.7
			c-0.6-0.4-1.2-1.2-1.7-2.2l-11.4-21.2V125c0,1.2-0.3,2.2-1,2.9c-0.7,0.7-1.6,1.1-2.8,1.1c-1.2,0-2.1-0.4-2.7-1.1
			c-0.7-0.7-1-1.7-1-2.9V85.4c0-1.3,0.4-2.3,1.1-3.1c0.7-0.8,1.7-1.2,3-1.2c1.7,0,3.1,1,4.1,2.9l14.9,28.3L539.6,84
			c1-1.9,2.3-2.9,3.9-2.9C544.8,81.1,545.8,81.5,546.6,82.3z"/>
		<path d="M569.1,127.5c-0.7-0.7-1.1-1.7-1.1-3v-39c0-1.3,0.4-2.3,1.1-3c0.7-0.7,1.8-1.1,3-1.1h24.2c1.3,0,2.3,0.3,3,0.9
			c0.7,0.6,1.1,1.4,1.1,2.5c0,1.1-0.4,2-1.1,2.6c-0.7,0.6-1.7,0.9-3,0.9h-19.9v13h18.5c1.3,0,2.3,0.3,3,0.9c0.7,0.6,1.1,1.4,1.1,2.5
			c0,1.1-0.4,1.9-1.1,2.5c-0.7,0.6-1.7,0.9-3,0.9h-18.5v13.8h19.9c1.3,0,2.3,0.3,3,0.9c0.7,0.6,1.1,1.5,1.1,2.6
			c0,1.1-0.4,1.9-1.1,2.5c-0.7,0.6-1.7,0.9-3,0.9h-24.2C570.8,128.6,569.8,128.3,569.1,127.5z"/>
		<path d="M618.5,127.5c-0.7-0.7-1.1-1.7-1.1-3v-39c0-1.3,0.4-2.3,1.1-3c0.7-0.7,1.8-1.1,3-1.1h13.2c7.7,0,13.7,2.1,18,6.2
			c4.3,4.1,6.4,9.9,6.4,17.4c0,7.5-2.1,13.3-6.4,17.4c-4.3,4.1-10.3,6.2-18,6.2h-13.2C620.3,128.6,619.3,128.3,618.5,127.5z
			 M634.3,121.6c10.8,0,16.3-5.5,16.3-16.6c0-11-5.4-16.5-16.3-16.5h-8.2v33.1H634.3z"/>
		<path d="M679.1,127.8c-0.8-0.8-1.2-1.9-1.2-3.1V85.4c0-1.3,0.4-2.3,1.2-3.1c0.8-0.8,1.8-1.2,3.1-1.2c1.3,0,2.4,0.4,3.2,1.2
			c0.8,0.8,1.2,1.8,1.2,3.1v39.3c0,1.3-0.4,2.3-1.2,3.1c-0.8,0.8-1.8,1.2-3.2,1.2C680.9,129,679.9,128.6,679.1,127.8z"/>
		<path d="M749.9,125.2c0,1-0.4,1.9-1.2,2.6c-0.8,0.7-1.8,1.1-2.8,1.1c-0.7,0-1.4-0.2-2-0.6c-0.6-0.4-1.1-1-1.5-1.8l-4-9h-23.6l-4,9
			c-0.4,0.8-0.8,1.4-1.5,1.8c-0.6,0.4-1.3,0.6-2.1,0.6c-1,0-2-0.4-2.8-1.1c-0.8-0.7-1.3-1.6-1.3-2.6c0-0.6,0.1-1.2,0.4-1.7L722,83.8
			c0.4-0.9,1-1.6,1.8-2c0.8-0.5,1.7-0.7,2.6-0.7c0.9,0,1.8,0.2,2.6,0.7c0.8,0.5,1.4,1.1,1.8,2l18.5,39.7
			C749.8,124,749.9,124.6,749.9,125.2z M717.7,110.9h17.7L726.6,91L717.7,110.9z"/>
		<path d="M795.8,127.8c-0.8-0.8-1.2-1.9-1.2-3.1V85.4c0-1.3,0.4-2.3,1.2-3.1c0.8-0.8,1.8-1.2,3.1-1.2c1.3,0,2.4,0.4,3.2,1.2
			c0.8,0.8,1.2,1.8,1.2,3.1v39.3c0,1.3-0.4,2.3-1.2,3.1c-0.8,0.8-1.8,1.2-3.2,1.2C797.6,129,796.6,128.6,795.8,127.8z"/>
		<path d="M832.6,126.3c-3.4-2-6-4.8-7.9-8.4c-1.8-3.7-2.7-7.9-2.7-12.8c0-4.9,0.9-9.2,2.7-12.8c1.8-3.6,4.4-6.4,7.9-8.4
			c3.4-2,7.4-2.9,11.9-2.9c2.9,0,5.7,0.4,8.3,1.3c2.6,0.9,4.9,2.1,6.9,3.8c0.6,0.4,1,0.9,1.2,1.4c0.2,0.5,0.3,1.1,0.3,1.8
			c0,1-0.3,1.8-0.8,2.5c-0.5,0.7-1.2,1-1.9,1c-0.9,0-1.8-0.3-2.7-0.9c-1.9-1.4-3.7-2.4-5.4-3c-1.7-0.6-3.5-0.8-5.5-0.8
			c-4.6,0-8.2,1.5-10.5,4.3c-2.4,2.9-3.6,7.2-3.6,12.8c0,5.7,1.2,9.9,3.6,12.8c2.4,2.9,5.9,4.3,10.5,4.3c1.9,0,3.7-0.3,5.3-0.9
			c1.6-0.6,3.5-1.6,5.5-2.9c0.4-0.3,0.9-0.5,1.3-0.7c0.4-0.2,0.9-0.3,1.4-0.3c0.8,0,1.4,0.3,1.9,1c0.5,0.7,0.8,1.5,0.8,2.5
			c0,0.7-0.1,1.3-0.3,1.8c-0.2,0.5-0.6,1-1.2,1.4c-2,1.7-4.3,2.9-6.9,3.8c-2.6,0.9-5.4,1.3-8.3,1.3C840,129.2,836,128.2,832.6,126.3
			z"/>
		<path d="M887.1,126.3c-3.4-2-6-4.8-7.8-8.4c-1.8-3.7-2.7-7.9-2.7-12.8c0-4.9,0.9-9.2,2.7-12.8c1.8-3.6,4.4-6.4,7.8-8.4
			c3.4-2,7.4-2.9,12-2.9c4.6,0,8.6,1,11.9,2.9c3.4,2,6,4.8,7.8,8.4c1.8,3.6,2.7,7.9,2.7,12.8c0,4.9-0.9,9.2-2.7,12.8
			c-1.8,3.7-4.4,6.5-7.8,8.4c-3.4,2-7.3,2.9-11.9,2.9C894.4,129.2,890.4,128.2,887.1,126.3z M909.1,117.8c2.4-3,3.6-7.3,3.6-12.8
			c0-5.6-1.2-9.8-3.6-12.8c-2.4-3-5.8-4.4-10.1-4.4c-4.4,0-7.8,1.5-10.2,4.4c-2.4,3-3.6,7.2-3.6,12.8c0,5.6,1.2,9.9,3.6,12.8
			c2.4,3,5.8,4.5,10.2,4.5C903.3,122.3,906.7,120.8,909.1,117.8z"/>
		<path d="M978.9,82.3c0.7,0.8,1.1,1.8,1.1,3.1v39.3c0,1.3-0.4,2.3-1.1,3.1c-0.8,0.8-1.7,1.2-2.9,1.2c-1.4,0-2.5-0.5-3.3-1.5
			l-24.4-31.8v29c0,1.3-0.4,2.3-1.1,3.1c-0.7,0.8-1.7,1.2-2.9,1.2c-1.2,0-2.2-0.4-2.9-1.2c-0.7-0.8-1.1-1.9-1.1-3.1V85.4
			c0-1.3,0.4-2.3,1.1-3.1c0.8-0.8,1.8-1.2,3-1.2c1.4,0,2.5,0.5,3.2,1.5l24.4,31.7V85.4c0-1.3,0.4-2.3,1.1-3.1
			c0.7-0.8,1.7-1.2,2.9-1.2C977.1,81.1,978.1,81.5,978.9,82.3z"/>
		<path d="M1006.8,127.8c-3.1-0.9-5.5-2.2-7.5-3.7c-1-0.8-1.5-1.8-1.5-3.2c0-0.9,0.3-1.8,0.8-2.4c0.6-0.7,1.2-1,2-1
			c0.8,0,1.7,0.3,2.7,0.9c1.9,1.4,3.9,2.4,6,3c2.1,0.6,4.4,0.9,7,0.9c3.3,0,5.8-0.6,7.5-1.7c1.7-1.1,2.6-2.8,2.6-5
			c0-1.7-0.8-3-2.4-3.9c-1.6-0.9-4.3-1.8-8.1-2.6c-3.9-0.8-7.1-1.8-9.6-2.9c-2.5-1.1-4.3-2.5-5.6-4.3c-1.2-1.7-1.9-3.9-1.9-6.6
			c0-2.8,0.8-5.2,2.3-7.4c1.6-2.2,3.7-3.9,6.5-5.1c2.8-1.2,5.9-1.8,9.4-1.8c6.4,0,11.6,1.7,15.6,5.1c0.6,0.5,1,1,1.2,1.4
			c0.2,0.5,0.4,1.1,0.4,1.8c0,0.9-0.3,1.8-0.8,2.4c-0.6,0.7-1.2,1-2,1c-0.4,0-0.9-0.1-1.2-0.2c-0.4-0.1-0.9-0.4-1.5-0.7
			c-1.8-1.3-3.6-2.3-5.3-3c-1.7-0.6-3.8-1-6.3-1c-3,0-5.4,0.6-7.2,1.8c-1.8,1.2-2.6,2.9-2.6,5.1c0,1.8,0.8,3.2,2.3,4.2
			c1.6,1,4.2,1.9,8,2.7c4,0.9,7.2,1.9,9.7,3c2.5,1.1,4.4,2.5,5.7,4.2c1.3,1.7,2,3.8,2,6.4c0,2.8-0.8,5.2-2.3,7.3
			c-1.5,2.1-3.7,3.8-6.5,5c-2.8,1.2-6,1.8-9.6,1.8C1013.1,129.2,1009.8,128.8,1006.8,127.8z"/>
	</g>
	<g class="st2">
		<circle class="st3" cx="600" cy="275.4" r="67.5"/>
		<g>
			<g>
				<path class="st4" d="M600,240.6c11.3,0,12.7,0,17.2,0.2c4.1,0.2,6.4,0.9,7.9,1.5c2,0.8,3.4,1.7,4.9,3.2c1.5,1.5,2.4,2.9,3.2,4.9
					c0.6,1.5,1.3,3.7,1.5,7.9c0.2,4.5,0.2,5.8,0.2,17.2c0,11.3,0,12.7-0.2,17.2c-0.2,4.1-0.9,6.4-1.5,7.9c-0.8,2-1.7,3.4-3.2,4.9
					c-1.5,1.5-2.9,2.4-4.9,3.2c-1.5,0.6-3.7,1.3-7.9,1.5c-4.5,0.2-5.8,0.2-17.2,0.2c-11.3,0-12.7,0-17.2-0.2
					c-4.1-0.2-6.4-0.9-7.9-1.5c-2-0.8-3.4-1.7-4.9-3.2c-1.5-1.5-2.4-2.9-3.2-4.9c-0.6-1.5-1.3-3.7-1.5-7.9
					c-0.2-4.5-0.2-5.8-0.2-17.2c0-11.3,0-12.7,0.2-17.2c0.2-4.1,0.9-6.4,1.5-7.9c0.8-2,1.7-3.4,3.2-4.9s2.9-2.4,4.9-3.2
					c1.5-0.6,3.7-1.3,7.9-1.5C587.3,240.6,588.7,240.6,600,240.6 M600,232.9c-11.5,0-13,0-17.5,0.3c-4.5,0.2-7.6,0.9-10.3,2
					c-2.8,1.1-5.2,2.5-7.5,4.9c-2.4,2.4-3.8,4.7-4.9,7.5c-1.1,2.7-1.8,5.8-2,10.3c-0.2,4.5-0.3,6-0.3,17.5c0,11.5,0,13,0.3,17.5
					c0.2,4.5,0.9,7.6,2,10.3c1.1,2.8,2.5,5.2,4.9,7.5c2.4,2.4,4.7,3.8,7.5,4.9c2.7,1.1,5.8,1.8,10.3,2c4.5,0.2,6,0.3,17.5,0.3
					s13,0,17.5-0.3c4.5-0.2,7.6-0.9,10.3-2c2.8-1.1,5.2-2.5,7.5-4.9c2.4-2.4,3.8-4.7,4.9-7.5c1.1-2.7,1.8-5.8,2-10.3
					c0.2-4.5,0.3-6,0.3-17.5s0-13-0.3-17.5c-0.2-4.5-0.9-7.6-2-10.3c-1.1-2.8-2.5-5.2-4.9-7.5c-2.4-2.4-4.7-3.8-7.5-4.9
					c-2.7-1.1-5.8-1.8-10.3-2C613,233,611.5,232.9,600,232.9L600,232.9z"/>
				<path class="st4" d="M600,253.6c-12.1,0-21.8,9.8-21.8,21.8c0,12.1,9.8,21.8,21.8,21.8c12.1,0,21.8-9.8,21.8-21.8
					C621.8,263.4,612.1,253.6,600,253.6z M600,289.6c-7.8,0-14.2-6.3-14.2-14.2s6.3-14.2,14.2-14.2s14.2,6.3,14.2,14.2
					S607.8,289.6,600,289.6z"/>
				<circle class="st4" cx="622.7" cy="252.8" r="5.1"/>
			</g>
		</g>
	</g>
	<g class="st2">
		<circle class="st3" cx="375.8" cy="275.4" r="67.5"/>
		<g>
			<g id="logo_5_">
				<path id="bubble_5_" class="st5" d="M375.8,225.4c-28.7,0-51,21-51,49.5c0,14.9,6.1,27.7,16,36.6c0.8,0.7,1.3,1.8,1.4,2.9
					l0.3,9.1c0.1,2.9,3.1,4.8,5.7,3.6l10.1-4.5c0.9-0.4,1.8-0.4,2.7-0.2c4.7,1.3,9.6,2,14.8,2c28.7,0,51-21,51-49.5
					C426.8,246.5,404.6,225.4,375.8,225.4z"/>
				<path id="bolt_5_" class="st6" d="M345.2,289.4l15-23.8c2.4-3.8,7.5-4.7,11.1-2l11.9,8.9c1.1,0.8,2.6,0.8,3.7,0l16.1-12.2
					c2.1-1.6,5,0.9,3.5,3.2l-15,23.8c-2.4,3.8-7.5,4.7-11.1,2l-11.9-8.9c-1.1-0.8-2.6-0.8-3.7,0l-16.1,12.2
					C346.6,294.2,343.8,291.7,345.2,289.4z"/>
			</g>
		</g>
	</g>
	<g class="st2">
		<circle class="st3" cx="824.2" cy="275.4" r="67.5"/>
		<g>
			<g id="WA_Logo_10_">
				<g>
					<path class="st5" d="M856.6,243.8c-8.1-8.1-18.8-12.5-30.3-12.6c-23.6,0-42.8,19.2-42.8,42.8c0,7.5,2,14.9,5.7,21.4l-6.1,22.2
						l22.7-6c6.3,3.4,13.3,5.2,20.5,5.2h0c0,0,0,0,0,0c23.6,0,42.8-19.2,42.8-42.8C869.2,262.7,864.7,251.9,856.6,243.8z
						 M826.3,309.7L826.3,309.7c-6.4,0-12.7-1.7-18.1-5l-1.3-0.8l-13.5,3.5l3.6-13.1l-0.8-1.3c-3.6-5.7-5.4-12.2-5.4-18.9
						c0-19.6,16-35.6,35.6-35.6c9.5,0,18.4,3.7,25.2,10.4c6.7,6.7,10.4,15.7,10.4,25.2C861.9,293.7,846,309.7,826.3,309.7z
						 M845.9,283c-1.1-0.5-6.3-3.1-7.3-3.5c-1-0.4-1.7-0.5-2.4,0.5c-0.7,1.1-2.8,3.5-3.4,4.2c-0.6,0.7-1.2,0.8-2.3,0.3
						c-1.1-0.5-4.5-1.7-8.6-5.3c-3.2-2.8-5.3-6.3-6-7.4c-0.6-1.1-0.1-1.6,0.5-2.2c0.5-0.5,1.1-1.2,1.6-1.9c0.5-0.6,0.7-1.1,1.1-1.8
						c0.4-0.7,0.2-1.3-0.1-1.9c-0.3-0.5-2.4-5.8-3.3-7.9c-0.9-2.1-1.8-1.8-2.4-1.8c-0.6,0-1.3,0-2.1,0s-1.9,0.3-2.9,1.3
						c-1,1.1-3.7,3.7-3.7,8.9c0,5.3,3.8,10.4,4.4,11.1c0.5,0.7,7.5,11.5,18.3,16.2c2.6,1.1,4.5,1.8,6.1,2.3c2.6,0.8,4.9,0.7,6.7,0.4
						c2.1-0.3,6.3-2.6,7.2-5.1c0.9-2.5,0.9-4.6,0.6-5.1C847.7,283.8,846.9,283.6,845.9,283z"/>
				</g>
			</g>
		</g>
	</g>
	<g class="st2">
		<circle class="st6" cx="1048.3" cy="275.4" r="67.5"/>
		<g>
			<g>
				<path class="st4" d="M1034.7,314.3c33,0,51-27.3,51-51c0-0.8,0-1.5-0.1-2.3c3.5-2.5,6.5-5.7,8.9-9.3c-3.2,1.4-6.7,2.4-10.3,2.8
					c3.7-2.2,6.5-5.7,7.9-9.9c-3.5,2.1-7.3,3.5-11.4,4.4c-3.3-3.5-7.9-5.7-13.1-5.7c-9.9,0-17.9,8-17.9,17.9c0,1.4,0.2,2.8,0.5,4.1
					c-14.9-0.7-28.1-7.9-36.9-18.7c-1.5,2.6-2.4,5.7-2.4,9c0,6.2,3.2,11.7,8,14.9c-2.9-0.1-5.7-0.9-8.1-2.2c0,0.1,0,0.1,0,0.2
					c0,8.7,6.2,15.9,14.4,17.6c-1.5,0.4-3.1,0.6-4.7,0.6c-1.2,0-2.3-0.1-3.4-0.3c2.3,7.1,8.9,12.3,16.7,12.4
					c-6.1,4.8-13.9,7.7-22.3,7.7c-1.4,0-2.9-0.1-4.3-0.2C1015.1,311.4,1024.6,314.3,1034.7,314.3"/>
			</g>
		</g>
	</g>
	<g class="st2">
		<circle class="st6" cx="824.2" cy="668.6" r="67.5"/>
		<g>
			<g>
				<path class="st4" d="M844.4,711.1h-14.2c-12.8,0-22.4-6.6-22.4-22.4v-25.2h-11.6v-13.7c12.8-3.3,18.2-14.4,18.8-23.9h13.3v21.7
					h15.5v15.9h-15.5v22c0,6.6,3.3,8.9,8.6,8.9h7.5V711.1z"/>
			</g>
		</g>
	</g>
	<g class="st2">
		<g>
			<path class="st3" d="M151.7,404.9c-37.3,0-67.6,30.2-67.6,67.6c0,28.6,17.8,53.1,42.9,62.9c-0.6-5.3-1.1-13.6,0.2-19.4
				c1.2-5.3,7.9-33.6,7.9-33.6s-2-4.1-2-10c0-9.4,5.4-16.4,12.2-16.4c5.8,0,8.6,4.3,8.6,9.5c0,5.8-3.7,14.5-5.6,22.5
				c-1.6,6.7,3.4,12.2,10,12.2c12,0,21.2-12.7,21.2-30.9c0-16.2-11.6-27.5-28.2-27.5c-19.2,0-30.5,14.4-30.5,29.3
				c0,5.8,2.2,12,5,15.4c0.6,0.7,0.6,1.3,0.4,1.9c-0.5,2.1-1.7,6.7-1.9,7.7c-0.3,1.2-1,1.5-2.3,0.9c-8.5-3.9-13.7-16.2-13.7-26.2
				c0-21.3,15.5-40.9,44.6-40.9c23.4,0,41.6,16.7,41.6,39c0,23.3-14.7,42-35,42c-6.8,0-13.3-3.6-15.5-7.8c0,0-3.4,12.9-4.2,16.1
				c-1.5,5.9-5.6,13.2-8.4,17.7c6.3,1.9,13,3,20,3c37.3,0,67.6-30.2,67.6-67.6C219.3,435.1,189,404.9,151.7,404.9z"/>
		</g>
	</g>
	<g class="st2">
		<circle class="st3" cx="600" cy="472.5" r="67.5"/>
		<path class="st4" d="M643.1,450.8c-1-3.9-4.1-6.9-8-8c-7-1.9-35.2-1.9-35.2-1.9s-28.1,0-35.2,1.9c-3.9,1-6.9,4.1-8,8
			c-1.9,7-1.9,21.7-1.9,21.7s0,14.6,1.9,21.7c1,3.9,4.1,6.9,8,8c7,1.9,35.2,1.9,35.2,1.9s28.1,0,35.2-1.9c3.9-1,6.9-4.1,8-8
			c1.9-7,1.9-21.7,1.9-21.7S645,457.8,643.1,450.8z M591,486v-27l23.4,13.5L591,486z"/>
	</g>
	<g class="st2">
		<circle class="st3" cx="1048.3" cy="472.5" r="67.5"/>
		<g>
			<path class="st5" d="M1032.2,463.4c17.9-6.2,21-22.3,18.7-37.1c0-0.5,0.5-0.9,0.9-0.8c17.2,8.4,36.5,26.7,36.5,54.2
				c0,21.1-16.3,39.7-40.1,39.7c-21.1,1-38.9-15.3-39.9-36.4c-0.6-14,6.4-27.1,18.3-34.4c0.5-0.3,1.1,0,1.1,0.5
				c0.2,2.8,1,9.9,4.1,14.2H1032.2z"/>
		</g>
	</g>
	<g class="st2">
		<circle class="st3" cx="824.2" cy="472.5" r="67.5"/>
		<g>
			<g>
				<path class="st7" d="M829.4,463.3c1.1-1.2,2-2.5,3.2-3.6c3.5-3.3,7.6-5,12.5-4.9c2.7,0,5.3,0.2,7.8,1c5.9,1.7,9.3,5.7,10.9,11.5
					c1.2,4.3,1.4,8.7,1.5,13.1c0,9.3,0,18.6,0,28c0,0.9-0.2,1.1-1.1,1.1c-4.8,0-9.6,0-14.4,0c-0.8,0-1-0.3-1-1.1
					c0-8.9,0-17.7,0-26.6c0-2.2-0.1-4.4-0.8-6.6c-1.1-4-4-6-8.2-5.8c-5.7,0.3-8.7,3.1-9.4,8.9c-0.2,1.4-0.3,2.8-0.3,4.2
					c0,8.6,0,17.3,0,25.9c0,0.9-0.2,1.1-1.1,1.1c-4.8,0-9.7,0-14.5,0c-0.8,0-1-0.2-1-1c0-17.1,0-34.2,0-51.3c0-0.8,0.3-1,1.1-1
					c4.6,0,9.2,0,13.8,0c0.8,0,1.1,0.3,1,1.1C829.4,459.2,829.4,461.2,829.4,463.3z"/>
				<path class="st7" d="M803.1,482.8c0,8.5,0,16.9,0,25.4c0,0.9-0.2,1.2-1.2,1.2c-4.8-0.1-9.6,0-14.4,0c-0.8,0-1-0.2-1-1
					c0-17.1,0-34.2,0-51.3c0-0.7,0.2-1,0.9-1c4.9,0,9.7,0,14.6,0c0.9,0,1.1,0.4,1.1,1.2C803.1,465.7,803.1,474.3,803.1,482.8z"/>
				<path class="st7" d="M804.4,439.1c0,5.3-4.3,9.6-9.6,9.6c-5.2,0-9.6-4.3-9.6-9.5c0-5.3,4.3-9.6,9.6-9.6
					C800.1,429.6,804.4,433.9,804.4,439.1z"/>
			</g>
		</g>
	</g>
	<g class="st2">
		<circle class="st6" cx="151.7" cy="1061.7" r="67.5"/>
		<g>
			<circle class="st5" cx="125.6" cy="1061.8" r="21"/>
			<circle class="st5" cx="177.8" cy="1061.8" r="21"/>
		</g>
	</g>
	<g class="st2">
		<circle class="st6" cx="600" cy="668.6" r="67.5"/>
		<g>
			<g>
				<path class="st4" d="M623.2,652.6c0,1.9-0.1,3.7-0.2,5.6c0,0.3,0,0.6,0,0.9c0,0.7,0.4,1,1.1,0.9c0.2,0,0.5-0.1,0.7-0.2
					c0.7-0.2,1.3-0.5,2-0.7c1.1-0.4,2.2-0.8,3.4-1.1c0.8-0.2,1.6-0.3,2.4-0.1c1.8,0.4,2.8,2.2,2.1,4c-0.2,0.5-0.5,0.9-0.8,1.2
					c-0.5,0.5-1,1-1.6,1.4c-0.7,0.5-1.4,0.9-2.1,1.4c-1.1,0.8-2.3,1.5-3.4,2.3c-0.5,0.3-0.9,0.7-1.4,1c-0.2,0.2-0.5,0.4-0.7,0.6
					c-0.4,0.5-0.6,1-0.6,1.7c0,0.6,0.1,1.2,0.3,1.8c0.5,1.9,1.4,3.7,2.4,5.4c1.9,3.1,4.3,5.7,7.1,8c2.4,1.9,5,3.5,7.7,4.9
					c0.2,0.1,0.5,0.3,0.7,0.4c0.2,0.1,0.3,0.3,0.5,0.4c0.2,0.3,0.2,0.5,0.1,0.8c-0.1,0.2-0.3,0.4-0.5,0.6c-0.3,0.3-0.7,0.5-1,0.6
					c-1.6,0.8-3.2,1.5-4.9,1.9c-0.7,0.2-1.5,0.4-2.2,0.6c-0.5,0.1-1,0.4-1.5,0.6c-0.8,0.4-1.2,1.1-1.4,1.9c-0.1,0.5-0.1,1-0.2,1.4
					c-0.2,1.2-0.6,1.6-1.8,1.8c-0.4,0.1-0.8,0.1-1.3,0.1c-1.1,0.1-2.1,0.1-3.2,0.1c-2.4,0.1-4.7,0.5-7,1.2c-1,0.3-1.9,0.7-2.8,1.2
					c-0.9,0.5-1.9,1.1-2.8,1.6c-1.5,0.9-2.9,1.7-4.5,2.3c-1.8,0.7-3.6,1.1-5.5,1.3c-1.6,0.1-3.2,0.1-4.8-0.1c-2.4-0.3-4.7-1-6.8-2.1
					c-1-0.5-2-1.1-2.9-1.7c-0.7-0.4-1.4-0.9-2.1-1.3c-1.7-1-3.5-1.6-5.4-2.1c-1.7-0.4-3.5-0.6-5.3-0.7c-0.9,0-1.9-0.1-2.8-0.1
					c-0.5,0-1-0.1-1.6-0.2c-0.7-0.2-1.2-0.6-1.3-1.4c-0.1-0.4-0.1-0.8-0.2-1.2c0-0.1,0-0.2,0-0.3c-0.2-1.1-0.7-1.9-1.7-2.4
					c-0.6-0.3-1.3-0.5-2-0.7c-1.2-0.3-2.3-0.6-3.5-1c-1-0.4-2-0.8-2.9-1.3c-0.3-0.2-0.5-0.3-0.8-0.5c-0.2-0.1-0.3-0.3-0.5-0.4
					c-0.5-0.6-0.5-1.1,0.1-1.5c0.3-0.2,0.6-0.4,1-0.6c2.4-1.2,4.7-2.6,6.8-4.2c3-2.3,5.6-5.1,7.6-8.3c1.1-1.7,2-3.6,2.5-5.6
					c0.2-0.6,0.3-1.3,0.3-1.9c0-0.6-0.2-1.2-0.6-1.7c-0.3-0.3-0.5-0.5-0.9-0.8c-0.9-0.7-1.8-1.3-2.7-1.9c-1.2-0.8-2.3-1.5-3.5-2.3
					c-0.6-0.4-1.1-0.8-1.6-1.3c-0.4-0.3-0.7-0.7-1-1.2c-0.6-0.9-0.6-1.9-0.2-2.8c0.3-0.7,0.8-1.1,1.5-1.4c0.7-0.3,1.5-0.3,2.3-0.2
					c0.9,0.2,1.8,0.4,2.7,0.7c0.9,0.3,1.8,0.7,2.7,1c0.4,0.2,0.8,0.3,1.3,0.4c0.1,0,0.2,0,0.3,0c0.5,0,0.9-0.2,0.9-0.9
					c0-0.6,0-1.1-0.1-1.7c-0.2-3.1-0.3-6.1-0.2-9.2c0.1-2,0.3-3.9,0.7-5.8c0.6-2.7,1.7-5.1,3.4-7.3c3.1-4,7.1-6.6,11.9-8
					c2.6-0.7,5.3-1,8.1-0.9c2.9,0.1,5.7,0.6,8.4,1.7c2.6,1,4.9,2.4,6.9,4.2c2.5,2.4,4.5,5.1,5.6,8.5c0.5,1.5,0.8,3.1,1,4.6
					C623.3,647.7,623.3,650.2,623.2,652.6z"/>
			</g>
		</g>
	</g>
	<g class="st2">
		<circle class="st6" cx="151.7" cy="864.6" r="67.5"/>
		<g>
			<g>
				<path class="st4" d="M200,874.2c-0.3-1.5-0.5-3.1-1-4.6c-2-6-6-10.4-11.4-13.6c-7.1-4.2-14.7-5.4-22.8-4.1
					c-7.2,1.2-13.4,4.3-18.4,9.9c-6.7,7.5-7.6,18.1-2.2,26.5c5.4,8.4,13.6,12.2,23.2,13.2c4.6,0.5,9.1-0.2,13.5-1.4
					c0.4-0.1,0.9-0.1,1.3,0.1c2.2,1.1,4.3,2.2,6.5,3.4c0.8,0.4,1.6,0.9,2.6,1.4c-0.1-0.3-0.1-0.4-0.2-0.6c-0.8-2.4-1.5-4.9-2.3-7.3
					c-0.2-0.5-0.1-0.8,0.3-1.1c0.6-0.4,1.2-0.9,1.7-1.3c4-3.3,7-7.3,8.4-12.4c0.4-1.3,0.5-2.7,0.8-4c0-1.2,0-2.4,0-3.6
					C200.1,874.5,200.1,874.3,200,874.2z M161.5,872.4c-2.2,0-4-1.8-4-4c0-2.2,1.8-4,4-4s4,1.8,4,4
					C165.5,870.6,163.7,872.4,161.5,872.4z M180.9,872.4c-2.2,0-4-1.8-4-4c0-2.2,1.8-4,4-4c2.2,0,4,1.8,4,4
					C184.9,870.6,183.1,872.4,180.9,872.4z"/>
				<path class="st4" d="M139.5,871.3c1.5-6.6,5.3-11.6,10.7-15.5c6.5-4.6,13.8-6.5,21.7-6.3c0.5,0,1,0,1.5,0c0-0.1,0-0.2,0-0.3
					c-0.2-0.7-0.3-1.3-0.5-2c-2.7-8.6-8.4-14.6-16.2-18.6c-9.6-4.9-19.7-5.6-30-2.5c-8.1,2.4-14.8,7-19.4,14.2
					c-3.5,5.5-4.9,11.4-3.9,17.9c1,6.2,3.9,11.5,8.4,15.8c1.6,1.6,3.4,2.9,5.1,4.4c-1.1,3.3-2.2,6.6-3.4,10.2
					c0.5-0.3,0.9-0.4,1.2-0.6c3.3-1.8,6.6-3.5,9.9-5.3c0.6-0.3,1.1-0.4,1.7-0.2c3.9,1.2,7.9,1.8,12,1.9c0.6,0,1.2,0,1.9,0
					c-0.1-0.5-0.2-0.8-0.3-1.1C138.8,879.4,138.6,875.4,139.5,871.3z M150.7,838.9c2.8,0,5,2.2,5,5c0,2.8-2.2,5-5,5
					c-2.8,0-5-2.2-5-5C145.7,841.1,148,838.9,150.7,838.9z M126.4,848.9c-2.8,0-5-2.2-5-5c0-2.8,2.2-5,5-5c2.8,0,5,2.2,5,5
					C131.4,846.7,129.2,848.9,126.4,848.9z"/>
			</g>
		</g>
	</g>
	<g class="st2">
		<g>
			<circle class="st3" cx="824.2" cy="864.6" r="67.5"/>
			<path class="st4" d="M869.2,864.6c0-5.4-4.4-9.8-9.8-9.8c-2.7,0-5.1,1.1-6.8,2.8c-6.7-4.9-16-8-26.3-8.4l4.5-21.1l14.7,3.1
				c0.2,3.7,3.2,6.7,7,6.7c3.9,0,7-3.1,7-7s-3.1-7-7-7c-2.8,0-5.1,1.6-6.3,3.9l-16.4-3.5c-0.5-0.1-0.9,0-1.3,0.2
				c-0.4,0.3-0.7,0.7-0.8,1.1l-5,23.5c-10.5,0.3-19.9,3.4-26.7,8.3c-1.8-1.7-4.2-2.7-6.8-2.7c-5.4,0-9.8,4.4-9.8,9.8
				c0,4,2.4,7.4,5.8,9c-0.2,1-0.2,2-0.2,3c0,15.1,17.6,27.4,39.4,27.4s39.4-12.3,39.4-27.4c0-1-0.1-2-0.2-3
				C866.7,872.1,869.2,868.7,869.2,864.6z M801.7,871.7c0-3.9,3.2-7,7-7c3.9,0,7,3.2,7,7c0,3.9-3.2,7-7,7
				C804.8,878.7,801.7,875.5,801.7,871.7z M840.9,890.2c-4.8,4.8-14,5.2-16.7,5.2c-2.7,0-11.9-0.4-16.7-5.2c-0.7-0.7-0.7-1.9,0-2.6
				c0.7-0.7,1.9-0.7,2.6,0c3,3,9.5,4.1,14.1,4.1c4.6,0,11.1-1.1,14.1-4.1c0.7-0.7,1.9-0.7,2.6,0
				C841.6,888.4,841.6,889.5,840.9,890.2z M839.6,878.7c-3.9,0-7-3.2-7-7c0-3.9,3.2-7,7-7c3.9,0,7,3.2,7,7
				C846.7,875.5,843.5,878.7,839.6,878.7z"/>
		</g>
	</g>
	<g class="st2">
		<circle class="st6" cx="1048.3" cy="864.6" r="67.5"/>
		<g>
			<g>
				<path class="st5" d="M1048.3,814.6c-27.6,0-50,22.4-50,50s22.4,50,50,50c27.5,0,50-22.4,50-50S1075.9,814.6,1048.3,814.6z
					 M1081.4,837.7c6,7.3,9.5,16.5,9.7,26.6c-1.4-0.3-15.5-3.1-29.7-1.4c-0.3-0.7-0.6-1.5-0.9-2.2c-0.9-2.1-1.8-4.2-2.8-6.2
					C1073.3,848.1,1080.4,838.9,1081.4,837.7z M1048.3,822c10.8,0,20.8,4.1,28.3,10.7c-0.8,1.1-7.2,9.7-22.4,15.4
					c-7-12.9-14.8-23.4-15.9-25C1041.5,822.4,1044.9,822,1048.3,822z M1030.2,826c1.1,1.5,8.7,12.1,15.8,24.7
					c-20,5.3-37.6,5.2-39.5,5.2C1009.3,842.7,1018.2,831.7,1030.2,826z M1005.6,864.7c0-0.4,0-0.9,0-1.3c1.8,0.1,22.6,0.3,43.9-6.1
					c1.2,2.4,2.4,4.8,3.5,7.3c-0.5,0.2-1.1,0.3-1.7,0.5c-22,7.1-33.7,26.5-34.7,28.1C1009.8,885.7,1005.6,875.6,1005.6,864.7z
					 M1048.3,907.4c-9.9,0-19-3.4-26.2-9c0.8-1.6,9.4-18.3,33.5-26.7c0.1-0.1,0.2-0.1,0.3-0.1c6,15.6,8.5,28.6,9.1,32.4
					C1059.9,906.2,1054.2,907.4,1048.3,907.4z M1072.1,900c-0.4-2.6-2.7-15.1-8.3-30.4c13.4-2.1,25.1,1.4,26.6,1.8
					C1088.6,883.3,1081.7,893.6,1072.1,900z"/>
			</g>
		</g>
	</g>
	<g class="st2">
		<circle class="st8" cx="824.2" cy="1061.7" r="67.5"/>
		<g>
			<g>
				<g>
					<path class="st4" d="M805.8,1032.8c2.7,0,5.1,0.2,7.4,0.7c2.2,0.5,4.1,1.3,5.7,2.3c1.6,1.1,2.8,2.5,3.7,4.3
						c0.9,1.8,1.3,4,1.3,6.6c0,2.8-0.6,5.2-1.9,7.1c-1.3,1.9-3.2,3.5-5.8,4.7c3.5,1,6.1,2.8,7.8,5.3c1.7,2.5,2.6,5.5,2.6,9.1
						c0,2.9-0.5,5.3-1.6,7.4c-1.1,2.1-2.6,3.8-4.5,5.1c-1.9,1.3-4,2.3-6.4,2.9c-2.4,0.6-4.9,1-7.4,1h-27.4v-56.6H805.8z
						 M804.2,1055.7c2.2,0,4-0.5,5.5-1.6c1.4-1,2.1-2.8,2.1-5.1c0-1.3-0.2-2.4-0.7-3.2c-0.5-0.8-1.1-1.5-1.9-2
						c-0.8-0.5-1.7-0.8-2.7-1c-1-0.2-2.1-0.3-3.2-0.3h-11.7v13.2H804.2z M804.9,1079.8c1.2,0,2.4-0.1,3.5-0.4
						c1.1-0.2,2.1-0.6,2.9-1.2c0.8-0.5,1.5-1.3,2-2.3c0.5-0.9,0.7-2.2,0.7-3.7c0-2.9-0.8-5-2.5-6.2c-1.6-1.2-3.8-1.9-6.5-1.9h-13.5
						v15.6H804.9z"/>
					<path class="st4" d="M844.3,1079.6c1.7,1.6,4.1,2.5,7.3,2.5c2.3,0,4.2-0.6,5.9-1.7c1.6-1.1,2.6-2.4,3-3.6h9.9
						c-1.6,4.9-4,8.5-7.3,10.6c-3.3,2.1-7.2,3.2-11.9,3.2c-3.2,0-6.1-0.5-8.7-1.6c-2.6-1-4.8-2.5-6.6-4.4c-1.8-1.9-3.2-4.2-4.2-6.8
						c-1-2.6-1.5-5.6-1.5-8.7c0-3.1,0.5-5.9,1.5-8.6c1-2.7,2.4-4.9,4.3-6.9c1.9-1.9,4.1-3.5,6.6-4.6c2.6-1.1,5.4-1.7,8.5-1.7
						c3.5,0,6.5,0.7,9.1,2c2.6,1.3,4.7,3.2,6.4,5.4c1.7,2.3,2.9,4.9,3.6,7.8c0.7,2.9,1,5.9,0.8,9.1h-29.6
						C841.5,1074.9,842.6,1077.9,844.3,1079.6z M857.2,1058.1c-1.3-1.5-3.6-2.3-6.4-2.3c-1.8,0-3.3,0.3-4.5,0.9
						c-1.2,0.6-2.1,1.4-2.8,2.3c-0.7,0.9-1.2,1.9-1.5,2.9c-0.3,1-0.5,1.9-0.5,2.7h18.3C859.6,1061.7,858.6,1059.6,857.2,1058.1z"/>
					<rect x="839.2" y="1036.6" class="st4" width="22.9" height="5.6"/>
				</g>
			</g>
		</g>
	</g>
	<g class="st2">
		<circle class="st3" cx="375.8" cy="668.6" r="67.5"/>
		<g>
			<g>
				<g>
					<path class="st4" d="M419.4,647.4c-0.4,8.9-6.6,21-18.6,36.4c-12.4,16.1-22.8,24.1-31.4,24.1c-5.3,0-9.8-4.9-13.5-14.7
						c-2.4-9-4.9-18-7.3-26.9c-2.7-9.8-5.6-14.7-8.8-14.7c-0.7,0-3.1,1.4-7.1,4.3l-4.3-5.5c4.5-3.9,8.9-7.9,13.3-11.8
						c6-5.2,10.5-7.9,13.5-8.2c7.1-0.7,11.4,4.2,13.1,14.5c1.8,11.2,3,18.1,3.7,20.9c2,9.3,4.3,13.9,6.7,13.9c1.9,0,4.8-3,8.6-9
						c3.8-6,5.8-10.6,6.1-13.7c0.5-5.2-1.5-7.8-6.1-7.8c-2.2,0-4.4,0.5-6.7,1.5c4.5-14.6,13-21.8,25.6-21.4
						C415.6,629.5,420,635.6,419.4,647.4z"/>
				</g>
			</g>
		</g>
	</g>
	<g class="st2">
		<circle class="st6" cx="600" cy="1061.7" r="67.5"/>
		<g>
			<path class="st4" d="M545.2,1061.6l-0.7,6.1l0.7,6.1c0,0.3,0.3,0.3,0.3,0.3c0.3,0,0.3-0.3,0.3-0.3l1-6.1l-1-6.1
				c0-0.3-0.3-0.3-0.3-0.3S545.2,1061.3,545.2,1061.6 M549.3,1057.9l-1,9.9l1,9.9c0,0.3,0.3,0.3,0.3,0.3c0.3,0,0.3-0.3,0.3-0.3
				l1.4-9.9l-1.4-9.9c0-0.3-0.3-0.3-0.3-0.3l0,0L549.3,1057.9 M562.3,1056.5l-0.7,11.3l0.7,12c0,0.3,0.3,0.7,0.7,0.7
				c0.3,0,0.7-0.3,0.7-0.7l1.4-12l-1-11.3c0-0.3-0.3-0.7-0.7-0.7C562.6,1055.8,562.3,1056.1,562.3,1056.5 M553.7,1055.8l-1,12
				l1,11.3c0,0.3,0.3,0.7,0.7,0.7c0,0,0.3-0.3,0.3-0.7l1-11.3l-1-12c0-0.3-0.3-0.7-0.7-0.7C554.1,1055.5,553.7,1055.5,553.7,1055.8
				 M557.8,1055.5l-1,12.3l1,11.6c0,0.3,0.3,0.7,0.7,0.7c0.3,0,0.7-0.3,0.7-0.7l1-11.6l-1-12.3c0-0.3-0.3-0.7-0.7-0.7
				C558.2,1054.8,558.2,1055.1,557.8,1055.5 M566.7,1049.3l-1,18.4l1,12c0,0.3,0.3,0.7,0.7,0.7c0.7,0,1-0.3,1-0.7l1-12l-1-18.4
				c0-0.3-0.3-0.7-0.7-0.7C567,1048.6,566.7,1049,566.7,1049.3 M571.1,1045.2l-0.7,22.5l0.7,12c0,0.7,0.3,1,1,1c0.3,0,1-0.3,1-1
				l1-12l-1-22.5c0-0.7-0.3-1-1-1C571.5,1044.2,571.1,1044.5,571.1,1045.2 M589.2,1044.2l-0.7,23.6l0.7,11.3c0,0.7,0.7,1.4,1.4,1.4
				s1.4-0.7,1.4-1.4l0.7-11.3l-0.7-23.9c0-0.7-0.7-1.4-1.4-1.4C589.6,1042.8,589.2,1043.2,589.2,1044.2 M575.6,1043.2l-0.7,24.6
				l0.7,11.6c0,0.7,0.3,1,1,1c0.7,0,1-0.3,1-1l0.7-11.6l-0.7-24.6c0-0.7-0.3-1-1-1C575.9,1042.1,575.6,1042.8,575.6,1043.2
				 M584.5,1043.2l-0.7,24.6l0.7,11.6c0,0.7,0.7,1.4,1.4,1.4s1.4-0.7,1.4-1.4l0.7-11.6l-0.7-24.6c0-0.7-0.7-1.4-1.4-1.4
				S584.5,1042.5,584.5,1043.2 M580,1042.5l-0.7,25.3l0.7,11.6c0,0.7,0.3,1,1,1c0.7,0,1-0.3,1-1l0.7-11.6l-0.7-25.3c0-0.7-0.7-1-1-1
				C580.7,1041.5,580,1041.8,580,1042.5 M593.7,1039.4l-0.7,28.3l0.7,11.3c0,0.7,0.7,1.4,1.4,1.4s1.4-0.7,1.4-1.4l0.7-11.3
				l-0.7-28.3c0-0.7-0.7-1.4-1.4-1.4S593.7,1038.7,593.7,1039.4 M598.5,1037l-0.7,30.7l0.7,11.3c0,0.7,0.7,1.4,1.4,1.4
				c0.7,0,1.4-0.7,1.4-1.4l0.7-11.3l-0.7-30.7c0-0.7-0.7-1.4-1.4-1.4h-0.3C598.8,1035.7,598.5,1036.3,598.5,1037 M603.9,1033.9
				c-1,0.3-1.4,0.7-1.4,1.7v43.4c0,0.7,0.7,1.4,1.4,1.7h37.9c7.5,0,13.7-6.1,13.7-13.7c0-7.5-6.1-13.7-13.7-13.7
				c-1.7,0-3.8,0.3-5.1,1c-1-12.3-11.3-21.9-23.9-21.9c-0.7,0-1,0-1.7,0C608.7,1032.6,606.3,1033.3,603.9,1033.9"/>
		</g>
	</g>
	<g class="st2">
		<circle class="st6" cx="1048.3" cy="1061.7" r="67.5"/>
		<g>
			<g>
				<path class="st4" d="M1049,1096.1c-2.9,0-5.7-0.1-8.5-0.5c-0.4-0.1-0.8,0-1.1,0.3c-5.6,3.9-11.2,7.9-17,11.6
					c-0.7,0.4-1.4,0.8-2.2,1.3c-0.3,0.1-0.5,0.2-0.8,0.3c-0.9,0.1-1.5-0.4-1.3-1.3c0.3-1.6,0.8-3.2,1.3-4.8c1.1-4,2.3-8,3.4-12
					c0.1-0.4,0.1-0.5-0.3-0.7c-5.5-2.8-10.3-6.4-14.2-11.1c-3.9-4.7-6.5-10-7.5-16c-1.1-6.9,0.1-13.4,3.5-19.6
					c3.3-6,8-10.7,13.7-14.3c6.1-3.9,12.7-6.4,19.8-7.7c5.3-1,10.6-1.2,16-0.7c10.1,0.9,19.4,4,27.6,10.1c5.4,4,9.8,9,12.5,15.2
					c4.3,10,3.4,19.7-2.3,29c-3.6,5.9-8.7,10.4-14.7,13.8c-5.7,3.3-11.9,5.4-18.4,6.5C1055.2,1095.8,1052.1,1096.1,1049,1096.1z"/>
				<path class="st3" d="M1071.2,1055.7c0.1-0.1,0.2-0.3,0.3-0.4c2.4-2.4,4.7-4.7,7.1-7.1c0.9-0.9,2-1,3-0.4c1.1,0.6,1.6,1.9,1.3,3
					c-0.1,0.4-0.4,0.8-0.7,1.1c-1.9,1.9-3.9,3.9-5.8,5.8c-0.3,0.3-0.3,0.4,0,0.7c2.2,2.8,4.3,5.7,6.5,8.6c0.9,1.2,0.8,2.8-0.3,3.8
					c-1.2,1.1-3.1,0.9-4.1-0.4c-1.9-2.5-3.8-5.1-5.8-7.6c0-0.1-0.1-0.1-0.1-0.2c-0.2-0.2-0.3-0.6-0.6-0.7c-0.3,0-0.9,1-0.9,1.3
					c0,1.9,0,3.8,0,5.7c0,1.3-1,2.4-2.3,2.6c-1.2,0.2-2.5-0.4-3-1.6c-0.2-0.4-0.3-0.8-0.3-1.2c0-6.3,0-12.6,0-18.8
					c0-1.6,1.2-2.8,2.8-2.8c1.5,0,2.8,1.2,2.8,2.8c0,1.8,0,3.6,0,5.4c0,0.1,0,0.3,0,0.4C1071.1,1055.6,1071.2,1055.7,1071.2,1055.7z
					"/>
				<path class="st3" d="M1019,1060.8c0-2.6,0-5.2,0-7.9c0-0.4-0.1-0.6-0.5-0.6c-1.2,0-2.5,0-3.7,0c-1.6,0-2.8-1.1-2.8-2.7
					c0-1.5,1.2-2.7,2.8-2.8c4.7,0,9.3,0,14,0c1.5,0,2.6,1,2.8,2.4c0.1,1.3-0.7,2.6-2,2.9c-0.3,0.1-0.6,0.1-0.8,0.1
					c-1.2,0-2.5,0-3.7,0c-0.4,0-0.5,0.1-0.5,0.5c0,5.2,0,10.5,0,15.7c0,1.4-0.7,2.4-1.9,2.8c-1.8,0.6-3.6-0.7-3.6-2.6
					C1019,1066.1,1019,1063.5,1019,1060.8z"/>
				<path class="st3" d="M1050.3,1059.1c0-3.1,0-6.2,0-9.3c0-1.5,1-2.6,2.5-2.8c1.3-0.2,2.6,0.7,3,2.1c0.1,0.3,0.1,0.7,0.1,1
					c0,5.1,0,10.3,0,15.4c0,0.4,0.1,0.5,0.5,0.5c1.8,0,3.6,0,5.4,0c1.4,0,2.5,1.1,2.6,2.4c0.1,1.4-1,2.6-2.4,2.6c-3.1,0-6.2,0-9.3,0
					c-1.4,0-2.4-1.2-2.4-2.6C1050.3,1065.4,1050.3,1062.3,1050.3,1059.1z"/>
				<path class="st3" d="M1048.4,1066.9c-1.2-3-2.3-6.1-3.5-9.1c-1-2.7-2-5.4-3.1-8.1c-0.7-1.8-2.5-2.9-4.3-2.6
					c-1.5,0.3-2.6,1.3-3.1,2.7c-1.9,4.9-3.8,9.9-5.6,14.8c-0.4,1.2-1,2.3-1.2,3.6c-0.4,2,0.3,3,2.2,3.3c1.5,0.2,2.5-0.3,3-1.7
					c0.3-0.9,0.7-1.8,1-2.7c0.1-0.3,0.2-0.4,0.5-0.4c1.3,0,2.6,0,3.8,0c1.3,0,2.5,0,3.8,0c0.3,0,0.5,0.1,0.6,0.4
					c0.3,0.9,0.7,1.8,1,2.8c0.4,1.2,1.2,1.6,2.3,1.6c0.6,0,1.2-0.1,1.7-0.3c0.8-0.3,1.1-0.8,1.2-1.6
					C1048.9,1068.6,1048.7,1067.8,1048.4,1066.9z M1037.5,1061.8c-0.5,0-1.1,0-1.6,0c-0.4,0-0.4-0.1-0.3-0.4c0.7-2,1.4-4,2.1-6
					c0.2-0.4,0.3-0.9,0.5-1.5c0.9,2.7,1.8,5.2,2.8,7.8C1039.7,1061.8,1038.6,1061.8,1037.5,1061.8z"/>
			</g>
		</g>
	</g>
	<g class="st2">
		<circle class="st6" cx="1048.3" cy="668.6" r="67.5"/>
		<g>
			<g id="FULL_COLOR_ICON_4_">
				<g id="TYPE_A_4_">
					<g>
						<path class="st4" d="M1094.1,662.1c0-20.6-20.6-37.3-46-37.3c-25.4,0-46,16.7-46,37.3c0,18.5,16.4,33.9,38.5,36.8
							c1.5,0.3,3.5,1,4.1,2.3c0.5,1.2,0.3,3,0.1,4.2c0,0-0.5,3.2-0.7,3.9c-0.2,1.2-0.9,4.5,4,2.5c4.9-2.1,26.5-15.6,36.1-26.7h0
							C1090.9,677.7,1094.1,670.3,1094.1,662.1"/>
						<g>
							<path class="st3" d="M1038.8,652.1h-3.2c-0.5,0-0.9,0.4-0.9,0.9v20c0,0.5,0.4,0.9,0.9,0.9h3.2c0.5,0,0.9-0.4,0.9-0.9v-20
								C1039.7,652.5,1039.3,652.1,1038.8,652.1"/>
							<path class="st3" d="M1061,652.1h-3.2c-0.5,0-0.9,0.4-0.9,0.9v11.9l-9.2-12.4c0,0,0-0.1-0.1-0.1c0,0,0,0,0,0c0,0,0,0-0.1-0.1
								c0,0,0,0,0,0c0,0,0,0,0,0c0,0,0,0,0,0c0,0,0,0,0,0c0,0,0,0,0,0c0,0,0,0,0,0c0,0,0,0,0,0c0,0,0,0-0.1,0c0,0,0,0,0,0
								c0,0,0,0-0.1,0c0,0,0,0,0,0c0,0,0,0-0.1,0c0,0,0,0,0,0c0,0,0,0,0,0c0,0,0,0,0,0c0,0,0,0,0,0h-3.2c-0.5,0-0.9,0.4-0.9,0.9v20
								c0,0.5,0.4,0.9,0.9,0.9h3.2c0.5,0,0.9-0.4,0.9-0.9v-11.9l9.2,12.4c0.1,0.1,0.1,0.2,0.2,0.2c0,0,0,0,0,0c0,0,0,0,0.1,0
								c0,0,0,0,0,0c0,0,0,0,0,0c0,0,0,0,0,0c0,0,0,0,0,0c0,0,0,0,0.1,0c0,0,0,0,0,0c0.1,0,0.1,0,0.2,0h3.2c0.5,0,0.9-0.4,0.9-0.9
								v-20C1061.9,652.5,1061.5,652.1,1061,652.1"/>
							<path class="st3" d="M1031,668.9h-8.8V653c0-0.5-0.4-0.9-0.9-0.9h-3.2c-0.5,0-0.9,0.4-0.9,0.9v20v0c0,0.2,0.1,0.5,0.3,0.6
								c0,0,0,0,0,0c0,0,0,0,0,0c0.2,0.2,0.4,0.2,0.6,0.2h0h12.9c0.5,0,0.9-0.4,0.9-0.9v-3.2C1031.9,669.3,1031.5,668.9,1031,668.9"
								/>
							<path class="st3" d="M1078.8,657.1c0.5,0,0.9-0.4,0.9-0.9V653c0-0.5-0.4-0.9-0.9-0.9h-12.9h0c-0.2,0-0.5,0.1-0.6,0.3
								c0,0,0,0,0,0c0,0,0,0,0,0c-0.2,0.2-0.2,0.4-0.2,0.6v0v20v0c0,0.2,0.1,0.5,0.3,0.6c0,0,0,0,0,0c0,0,0,0,0,0
								c0.2,0.2,0.4,0.3,0.6,0.3h0h12.9c0.5,0,0.9-0.4,0.9-0.9v-3.2c0-0.5-0.4-0.9-0.9-0.9h-8.8v-3.4h8.8c0.5,0,0.9-0.4,0.9-0.9
								v-3.2c0-0.5-0.4-0.9-0.9-0.9h-8.8v-3.4H1078.8z"/>
						</g>
					</g>
				</g>
			</g>
		</g>
	</g>
	<g class="st2">
		<path class="st3" d="M219.2,275.4c0-37.3-30.2-67.5-67.5-67.5s-67.5,30.2-67.5,67.5c0,33.7,24.7,61.6,57,66.7V295H124v-19.5h17.1
			v-14.9c0-16.9,10.1-26.3,25.5-26.3c7.4,0,15.1,1.3,15.1,1.3v16.6h-8.5c-8.4,0-11,5.2-11,10.5v12.7h18.7l-3,19.5h-15.7v47.2
			C194.5,337.1,219.2,309.1,219.2,275.4z"/>
		<path class="st4" d="M177.9,295l3-19.5h-18.7v-12.7c0-5.3,2.6-10.5,11-10.5h8.5v-16.6c0,0-7.7-1.3-15.1-1.3
			c-15.4,0-25.5,9.3-25.5,26.3v14.9H124V295h17.1v47.2c3.4,0.5,7,0.8,10.5,0.8s7.1-0.3,10.5-0.8V295H177.9z"/>
	</g>
	<g class="st2">
		<g>
			<g>
				<path class="st3" d="M151.9,601.1c-37.3,0-67.5,30.2-67.5,67.5c0,37.3,30.2,67.5,67.5,67.5c37.3,0,67.5-30.2,67.5-67.5
					C219.4,631.3,189.2,601.1,151.9,601.1z M182.8,698.4c-1.2,2-3.8,2.6-5.8,1.4c-15.9-9.7-35.8-11.9-59.3-6.5
					c-2.3,0.5-4.5-0.9-5-3.2c-0.5-2.3,0.9-4.5,3.2-5c25.7-5.9,47.8-3.3,65.6,7.5C183.4,693.8,184,696.4,182.8,698.4z M191.1,680
					c-1.5,2.5-4.8,3.3-7.2,1.7c-18.1-11.2-45.8-14.4-67.3-7.9c-2.8,0.8-5.7-0.7-6.6-3.5c-0.8-2.8,0.7-5.7,3.5-6.6
					c24.5-7.4,55-3.8,75.8,9C191.8,674.3,192.6,677.6,191.1,680z M191.8,660.9c-21.8-12.9-57.6-14.1-78.4-7.8
					c-3.3,1-6.9-0.9-7.9-4.2c-1-3.3,0.9-6.9,4.2-7.9c23.8-7.2,63.5-5.8,88.5,9c3,1.8,4,5.7,2.2,8.7
					C198.7,661.7,194.8,662.7,191.8,660.9z"/>
			</g>
		</g>
		<path class="st4" d="M182.8,698.4c-1.2,2-3.8,2.6-5.8,1.4c-15.9-9.7-35.8-11.9-59.3-6.5c-2.3,0.5-4.5-0.9-5-3.2
			c-0.5-2.3,0.9-4.5,3.2-5c25.7-5.9,47.8-3.3,65.6,7.5C183.4,693.8,184,696.4,182.8,698.4z"/>
		<path class="st4" d="M191.1,680c-1.5,2.5-4.8,3.3-7.2,1.7c-18.1-11.2-45.8-14.4-67.3-7.9c-2.8,0.8-5.7-0.7-6.6-3.5
			c-0.8-2.8,0.7-5.7,3.5-6.6c24.5-7.4,55-3.8,75.8,9C191.8,674.3,192.6,677.6,191.1,680z"/>
		<path class="st4" d="M191.8,660.9c-21.8-12.9-57.6-14.1-78.4-7.8c-3.3,1-6.9-0.9-7.9-4.2c-1-3.3,0.9-6.9,4.2-7.9
			c23.8-7.2,63.5-5.8,88.5,9c3,1.8,4,5.7,2.2,8.7C198.7,661.7,194.8,662.7,191.8,660.9z"/>
	</g>
	<g class="st2">
		<g>
			<circle class="st3" cx="375.8" cy="472.5" r="67.5"/>
		</g>
		<path class="st4" d="M413.7,450.2c0-0.4,0-0.4-0.4-0.4c-1,0-2-0.1-2.9-0.3c-3.5-0.5-15-6.5-16.9-16.4c0-0.2-0.5-2.6-0.5-3.7
			c0-0.5,0-0.5-0.5-0.5c-0.1,0-0.2,0-0.3,0c-4.5,0-9,0-13.4,0c-0.9,0-0.8-0.1-0.8,0.8c0,19.4,0,38.9,0,58.3c0,0.7,0,1.4-0.1,2.2
			c-0.7,3.8-2.6,6.7-5.9,8.7c-2.8,1.7-5.9,2.2-9.1,1.6c-1-0.2-2-0.6-3-1c-0.1-0.1-0.2-0.1-0.2-0.2c-0.3-0.3-0.7-0.5-1-0.7
			c-4.1-2.9-6.1-6.9-5.5-11.9c0.6-5.1,3.5-8.5,8.3-10.3c1.4-0.5,2.9-0.7,4.5-0.7c1,0.1,2,0.2,2.9,0.4c0.3,0.1,0.5,0,0.5-0.4
			c0-0.1,0-0.2,0-0.4c0-3.5-0.1-11.1-0.1-11.1c0-1,0-2,0-3c0-0.3-0.1-0.3-0.4-0.4c-1.8-0.2-3.6-0.3-5.4-0.1
			c-2.5,0.2-4.9,0.7-7.3,1.6c-3.8,1.4-7.1,3.5-10,6.3c-2.5,2.4-4.4,5.2-5.8,8.3c-1.4,3-2.1,6.2-2.3,9.4c-0.1,1.4-0.1,2.9,0.1,4.3
			c0.2,2,0.6,3.9,1.2,5.8c1.7,5.4,4.9,9.9,9.3,13.4c0.5,0.4,0.9,0.8,1.4,1c0,0,0,0,0,0c0.2,0.2,0.5,0.4,0.7,0.6
			c0.7,0.5,1.5,1,2.3,1.4c5,2.5,10.2,3.5,15.8,2.8c7.2-0.9,13.2-4.1,17.9-9.5c4.4-5.2,6.6-11.2,6.6-18c0.1-9.7,0-19.4,0-29
			c0-0.2-0.1-0.6,0.1-0.7c0.2-0.1,0.4,0.2,0.6,0.3c3.6,2.4,7.5,4.1,11.7,5c2.4,0.6,4.9,0.9,7.4,0.9c0.8,0,0.9,0,0.9-0.8
			C413.8,460.5,413.7,451.1,413.7,450.2z"/>
	</g>
	<g class="st2">
		<circle class="st6" cx="375.8" cy="864.6" r="67.5"/>
		<g>
			<g>
				<g id="Layer_1-2_4_">
					<path class="st4" d="M352.5,823l-16.7,16.7v60h20v16.7l16.7-16.7h13.3l30-30V823H352.5z M409.2,866.3l-13.3,13.3h-13.3
						l-11.7,11.7v-11.7h-15v-50h53.3V866.3z"/>
					<rect x="392.5" y="841.3" class="st4" width="6.7" height="20"/>
					<rect x="374.2" y="841.3" class="st4" width="6.7" height="20"/>
				</g>
			</g>
		</g>
	</g>
	<g class="st2">
		<circle class="st6" cx="600" cy="864.6" r="67.5"/>
		<g>
			<linearGradient id="SVGID_1_" gradientUnits="userSpaceOnUse" x1="645.429" y1="881.9026" x2="645.4303" y2="881.9002">
				<stop  offset="0" style="stop-color:#00B7F0"/>
				<stop  offset="1" style="stop-color:#007CC1"/>
			</linearGradient>
			<polygon class="st9" points="645.4,881.9 645.4,881.9 645.4,881.9 			"/>
			<path class="st5" d="M645.4,881.9C645.4,881.9,645.4,881.9,645.4,881.9c0-0.1,0-0.2,0-0.3c0-0.2,0-0.5-0.1-0.7
				c0-0.3-0.1-0.6-0.1-0.9c0-0.1,0-0.2,0-0.3c-0.5-3.2-1.6-6.3-3.1-9c0.3-1.9,0.4-3.8,0.4-5.8c0-23.4-19-42.3-42.5-42.3
				c-1.5,0-3,0.1-4.5,0.2c-0.1,0-0.1-0.1-0.2-0.1c0,0,0,0,0,0c-0.1-0.1-0.2-0.1-0.4-0.2c-0.1-0.1-0.2-0.1-0.3-0.2
				c-0.3-0.2-0.7-0.4-1-0.5c-0.1-0.1-0.2-0.1-0.3-0.2c0,0-0.1,0-0.1-0.1c0,0,0,0,0,0c-0.3-0.1-0.6-0.3-0.9-0.4
				c-0.1,0-0.2-0.1-0.3-0.1c-0.2-0.1-0.4-0.2-0.6-0.3c0,0,0,0,0,0c-0.1-0.1-0.3-0.1-0.4-0.2c-0.1,0-0.1-0.1-0.2-0.1c0,0,0,0,0,0
				c-1.2-0.4-2.4-0.8-3.7-1.1c0,0-0.1,0-0.1,0c-0.7-0.1-1.4-0.3-2.1-0.4c-0.1,0-0.1,0-0.2,0c0,0,0,0,0,0c-1.1-0.1-2.2-0.2-3.3-0.2
				c-14.8,0-26.8,12-26.8,26.7c0,0.8,0,1.5,0.1,2.3c0,0,0,0,0,0c0,0.1,0,0.1,0,0.2c0,0.2,0,0.4,0.1,0.6c0,0.3,0.1,0.6,0.1,0.9
				c0,0.1,0,0.1,0,0.2c0.5,3.3,1.6,6.3,3.1,9.1c-0.3,2-0.4,4-0.4,6.1c0,23.4,19,42.3,42.5,42.3c1.7,0,3.4-0.1,5.1-0.3c0,0,0,0,0,0
				c0.1,0,0.1,0.1,0.2,0.1c0.1,0,0.1,0.1,0.2,0.1c0.1,0,0.1,0.1,0.2,0.1c0.5,0.3,1.1,0.6,1.6,0.8c0,0,0,0,0.1,0c0,0,0,0,0,0
				c0.3,0.2,0.7,0.3,1,0.5c0.1,0,0.2,0.1,0.3,0.1c0.4,0.1,0.7,0.3,1.1,0.4c0.1,0,0.1,0,0.2,0.1c0,0,0,0,0,0c0.5,0.2,0.9,0.3,1.4,0.4
				c0,0,0.1,0,0.1,0c0.3,0.1,0.7,0.2,1,0.3c0.1,0,0.2,0,0.2,0.1c0.3,0.1,0.6,0.1,0.9,0.2c0.1,0,0.2,0,0.3,0.1
				c0.3,0.1,0.6,0.1,0.9,0.1c0.1,0,0.3,0,0.4,0.1c0.3,0,0.5,0.1,0.8,0.1c0,0,0.1,0,0.1,0c0,0,0,0,0,0c0.8,0.1,1.6,0.1,2.4,0.1
				c14.8,0,26.8-12,26.8-26.7C645.5,883.2,645.5,882.5,645.4,881.9z M614.2,882.8c-1.6,2.1-3.7,3.7-6.2,4.6c-3,1.1-6.1,1.6-9.3,1.5
				c-4.4,0.2-8.7-0.7-12.7-2.4c-1-0.5-1.9-1.2-2.6-2c-0.6-0.8-0.9-1.8-0.9-2.8c-0.1-1.1,0.4-2.1,1.1-2.8c0.8-0.7,1.8-1.1,2.9-1
				c1.2,0,2.3,0.3,3.4,0.9c1.3,0.6,2.3,1.1,3.1,1.5c0.9,0.4,1.7,0.6,2.6,0.8c1.1,0.2,2.2,0.4,3.4,0.3c2,0.1,4-0.4,5.7-1.5
				c1.3-1,2-2.5,1.9-4.2c0-1.1-0.4-2.2-1.2-3c-1-1.1-2.2-1.9-3.5-2.6c-1.6-0.8-3.7-1.8-6.6-3c-2.5-1-4.9-2.3-7.2-3.8
				c-1.7-1.1-3.1-2.6-4.2-4.4c-1-1.9-1.5-4-1.4-6.1c-0.1-2.7,0.8-5.3,2.6-7.4c1.8-2.1,4.1-3.6,6.7-4.5c2.8-1,5.8-1.5,8.8-1.5
				c2,0,3.9,0.1,5.9,0.5c1.4,0.2,2.8,0.6,4.1,1.1c1.2,0.4,2.3,1.1,3.2,2c0.6,0.8,1,1.7,1,2.7c0,1-0.3,2.1-1,2.9
				c-0.7,0.7-1.6,1.1-2.6,1.1c-0.7,0-1.3-0.2-1.9-0.4c-1.5-0.7-3-1.2-4.6-1.7c-1.4-0.4-2.9-0.6-4.4-0.6c-1.9-0.1-3.9,0.4-5.6,1.4
				c-1.4,0.9-2.3,2.5-2.2,4.1c0,1.1,0.4,2.1,1.2,2.9c0.9,0.9,1.9,1.7,3.1,2.2c1.3,0.6,3.2,1.5,5.8,2.6c0.3,0.1,0.6,0.2,0.8,0.3
				c2.5,1,4.9,2.2,7.2,3.7c1.8,1.2,3.3,2.7,4.4,4.5c1.1,1.9,1.7,4.1,1.6,6.3C616.5,877.9,615.8,880.6,614.2,882.8z"/>
		</g>
	</g>
	<g class="st2">
		<circle class="st3" cx="375.8" cy="1061.7" r="67.5"/>
		<path class="st4" d="M408.7,1034.2c-0.3-0.8-0.6-1-1-1.1c-1.1-0.4-2.8,0.2-2.8,0.2s-63.1,22.7-66.7,25.2c-0.8,0.5-1,0.9-1.2,1.2
			c-0.6,1.8,1.3,2.6,1.3,2.6l16.3,5.3c0,0,0.6,0.1,0.8,0c3.7-2.3,37.2-23.5,39.1-24.2c0.3-0.1,0.5,0,0.5,0.2
			c-0.8,2.7-29.9,28.6-29.9,28.6s-0.1,0.1-0.2,0.3l0,0l-1.5,16.1c0,0-0.6,4.9,4.3,0c3.5-3.5,6.9-6.4,8.5-7.8
			c5.6,3.9,11.6,8.1,14.2,10.4c1.3,1.1,2.4,1.3,3.3,1.3c2.5-0.1,3.2-2.8,3.2-2.8s11.5-46.3,11.9-52.5c0-0.6,0.1-1,0.1-1.4
			C408.8,1035.1,408.8,1034.5,408.7,1034.2z"/>
	</g>
</g>
<g id="Skype" class="st0">
	<path class="st10" d="M947.1,732C947.1,732,947.2,732,947.1,732c0-0.9-0.1-1.8-0.2-2.7c-0.2-1.9-0.3-3.7-0.5-5.6
		c-0.2-2.3-0.5-4.5-0.9-6.8c-0.1-0.8-0.2-1.5-0.3-2.3c-3.8-24.8-12-48.1-23.7-69c2-14.5,3.1-29.2,3.1-44.2
		C924.6,422.9,779.3,278,600,278c-11.7,0-23.2,0.7-34.6,1.9c-0.5-0.3-0.9-0.6-1.4-0.9c0,0,0,0,0,0c-0.9-0.5-1.8-1.1-2.7-1.6
		c-0.7-0.4-1.4-0.8-2-1.2c-2.5-1.4-5-2.8-7.5-4.1c-0.8-0.4-1.6-0.8-2.4-1.2c-0.3-0.2-0.6-0.3-0.9-0.5c0,0,0,0-0.1,0
		c-2.2-1.1-4.5-2.2-6.8-3.2c-0.8-0.4-1.6-0.8-2.5-1.1c-1.6-0.7-3.2-1.4-4.8-2c-0.1,0-0.1,0-0.2-0.1c-1.1-0.4-2.2-0.9-3.3-1.3
		c-0.5-0.2-1-0.4-1.6-0.6c0,0,0,0,0,0c-9.1-3.4-18.5-6.2-28.2-8.3c-0.3-0.1-0.6-0.1-0.8-0.2c-5.3-1.1-10.6-2-16-2.7
		c-0.5-0.1-1-0.2-1.5-0.2c0,0-0.1,0-0.1,0c-8.3-1-16.8-1.6-25.4-1.6c-113.2,0-204.9,91.4-204.9,204.2c0,5.9,0.3,11.6,0.8,17.4
		c0,0,0,0.1,0,0.1c0,0.5,0.1,1,0.2,1.6c0.1,1.6,0.3,3.2,0.5,4.8c0.2,2.2,0.5,4.4,0.8,6.6c0.1,0.6,0.2,1.1,0.3,1.7
		c3.9,25,12.2,48.3,24,69.3c-2.2,15.3-3.4,30.8-3.4,46.7C275.5,780.2,420.8,925,600,925c13.1,0,26-0.9,38.7-2.4
		c0.1,0.1,0.2,0.1,0.4,0.2c0.5,0.3,1,0.6,1.5,0.9l1.3,0.8c0.5,0.3,1.1,0.6,1.6,0.9c4,2.2,8.1,4.3,12.2,6.2c0.2,0.1,0.3,0.2,0.5,0.2
		c0,0,0,0,0,0c2.6,1.2,5.2,2.4,7.9,3.5c0.7,0.3,1.4,0.5,2.1,0.8c2.7,1.1,5.5,2.1,8.3,3.1c0.5,0.2,0.9,0.4,1.4,0.5c0,0,0.1,0,0.1,0
		c3.6,1.2,7.2,2.4,10.9,3.4c0.4,0.1,0.7,0.2,1.1,0.3c2.5,0.7,5,1.3,7.5,1.9c0.6,0.1,1.3,0.3,1.9,0.4c2.3,0.5,4.7,1,7.1,1.5
		c0.9,0.2,1.7,0.3,2.6,0.5c2.2,0.4,4.4,0.8,6.7,1.1c1.1,0.2,2.2,0.3,3.4,0.4c2,0.2,4,0.5,6.1,0.7c0.3,0,0.6,0.1,0.8,0.1
		c0,0,0,0,0.1,0c6.1,0.5,12.3,0.9,18.5,0.9c113.2,0,205-91.5,205-204.3C947.7,741.7,947.5,736.8,947.1,732z M708.8,738.8
		c-11.9,16.2-28.4,28.4-47.4,35.2c-22.8,8.2-47,12.1-71.2,11.6c-33.3,1.2-66.5-5.1-97.1-18.4c-7.8-3.5-14.7-8.8-20-15.5
		c-4.4-6.2-6.7-13.6-6.5-21.2c-0.4-8.1,2.7-15.9,8.5-21.5c6.1-5.3,13.9-8.1,22-7.8c9,0.1,17.8,2.4,25.7,6.6
		c9.9,4.9,17.6,8.6,23.3,11.1c6.5,2.7,13.2,4.9,20.1,6.4c8.5,1.9,17.2,2.8,25.9,2.7c15.4,1.1,30.7-3,43.4-11.6
		c9.7-7.6,15.2-19.4,14.6-31.7c0-8.6-3.3-16.9-9.2-23.2c-7.8-8.1-16.9-14.7-27-19.6c-11.9-6.3-28.6-13.9-50.2-22.9
		c-19.3-7.7-37.8-17.3-55.1-28.7c-13.1-8.6-24.1-20.2-32-33.7c-7.6-14.3-11.4-30.4-10.9-46.6c-0.6-20.6,6.4-40.7,19.8-56.4
		c13.8-15.8,31.6-27.7,51.5-34.4c21.6-7.6,44.4-11.5,67.4-11.3c15-0.1,30,1,44.8,3.4c10.6,1.6,21,4.3,31.1,8
		c9.2,3.1,17.6,8.5,24.3,15.5c5,5.8,7.6,13.2,7.5,20.9c0.4,8-2.5,15.9-7.9,21.8c-5.1,5.5-12.4,8.5-19.9,8.3
		c-5.1,0-10.1-1.2-14.8-3.3c-11.4-5.1-23.2-9.4-35.2-12.9c-11.1-2.9-22.5-4.3-33.9-4.2c-14.9-0.6-29.6,3.2-42.4,10.8
		c-11,6.7-17.5,18.8-16.9,31.7c-0.1,8.3,3.1,16.3,8.8,22.3c6.8,7,14.8,12.8,23.7,17c9.9,4.9,24.8,11.5,44.5,19.6
		c2.2,0.7,4.3,1.5,6.4,2.5c19.2,7.6,37.7,17.1,55,28.3c13.7,8.9,25.3,20.8,33.9,34.8c8.5,14.7,12.7,31.4,12.2,48.3
		C726.4,701.3,720.5,721.7,708.8,738.8z"/>
	
		<linearGradient id="SVGID_00000157303447041179568980000010256247634273565314_" gradientUnits="userSpaceOnUse" x1="947.1647" y1="731.9429" x2="947.175" y2="731.9251">
		<stop  offset="0" style="stop-color:#00B7F0"/>
		<stop  offset="1" style="stop-color:#007CC1"/>
	</linearGradient>
	<path style="display:inline;fill:url(#SVGID_00000157303447041179568980000010256247634273565314_);" d="M947.2,731.9
		C947.2,731.9,947.2,731.9,947.2,731.9C947.2,731.9,947.2,731.9,947.2,731.9L947.2,731.9z"/>
</g>
<g id="Twitter_00000030465182946291206190000001202276564002230175_" class="st0">
	<rect x="587.3" y="421.7" class="st10" width="51" height="152.8"/>
	<rect x="727.4" y="421.7" class="st10" width="50.9" height="152.8"/>
	<path class="st10" d="M421.7,281.6L294.3,409v458.5h152.8v127.4l127.4-127.4h101.9l229.3-229.3V281.6H421.7z M854.7,612.7
		L752.8,714.6H651l-89.2,89.1v-89.1H447.2V332.5h407.6V612.7z"/>
</g>
<g id="Snapchat" class="st0">
	<path class="st12" d="M777.7,478.3c-0.2,14.2-0.9,28.3-1.9,42.5c-0.2,2.4-0.2,4.8-0.3,7.2c-0.1,5.3,2.9,7.4,8.2,6.9
		c1.9-0.2,3.8-0.7,5.6-1.3c5.2-1.8,10.3-3.7,15.4-5.7c8.6-3.3,17.2-6.5,26.1-8.6c6-1.4,12-2.1,18.2-0.7c13.9,3.2,21.1,17,15.7,30.3
		c-1.4,3.5-3.5,6.5-6,9.3c-3.6,4-7.7,7.4-12.1,10.4c-5.2,3.5-10.5,6.9-15.7,10.4c-8.7,5.8-17.5,11.5-26.2,17.3
		c-3.6,2.4-7.1,5-10.6,7.6c-1.9,1.5-3.7,3.2-5.3,4.9c-3.3,3.6-4.8,8-4.5,12.9c0.3,4.7,1.1,9.2,2.4,13.8c4.1,14.5,10.5,28,18.2,40.9
		c14.2,23.8,32.6,43.9,54,61.4c18.2,14.8,38,27,59.1,37.3c1.9,0.9,3.7,1.9,5.5,3c1.4,0.8,2.6,1.9,3.5,3.3c1.4,2,1.6,4.1,0.4,6.4
		c-1,1.9-2.5,3.3-4.1,4.7c-2.4,2-5,3.5-7.7,4.9c-11.9,6.5-24.6,11.1-37.7,14.6c-5.6,1.5-11.2,3.1-16.7,4.7
		c-3.9,1.1-7.5,2.8-11.1,4.7c-6,3.1-9.5,8.1-10.7,14.6c-0.7,3.6-1.1,7.3-1.8,11c-1.6,9.2-4.9,12.5-14,14.1c-3.2,0.5-6.4,0.9-9.6,1.1
		c-8,0.4-16.1,0.7-24.1,1.1c-18.2,1-36.1,3.8-53.6,9.5c-7.4,2.4-14.4,5.5-21.1,9.4c-7.1,4.1-14.1,8.3-21.2,12.6
		c-11.2,6.7-22.5,13.2-34.7,17.9c-13.6,5.3-27.6,8.4-42.2,9.7c-12.3,1.1-24.5,0.9-36.7-0.4c-18.3-2-35.5-7.4-51.9-15.7
		c-7.6-3.9-14.9-8.2-22.2-12.7c-5.4-3.3-10.7-6.5-16.1-9.7c-12.9-7.6-26.8-12.6-41.3-15.7c-13.2-2.9-26.7-4.5-40.2-5
		c-7.1-0.3-14.2-0.6-21.2-1c-4-0.2-8-0.7-11.9-1.8c-5.5-1.4-9-4.8-10.1-10.4c-0.6-3.2-1.1-6.3-1.7-9.5c-0.1-0.6-0.1-1.3-0.2-1.9
		c-1.2-8.4-5.3-14.6-13.3-18.2c-4.9-2.2-9.8-4-15-5.4c-8.8-2.5-17.7-4.6-26.4-7.7c-7.6-2.7-14.9-6-22-9.8c-2.1-1.2-4.2-2.4-6.2-3.8
		c-1.3-0.9-2.6-1.9-3.7-3.1c-4.1-4.3-3.8-8.2,1-11.8c2.3-1.8,5-3,7.6-4.3c18.4-9,35.9-19.6,52.1-32.1c23.2-17.9,43-38.8,58.4-63.8
		c8.2-13.4,14.9-27.4,19.3-42.5c1.4-4.8,2.4-9.7,2.6-14.7c0.2-5-1.5-9.1-4.8-12.8c-2-2.2-4.2-4-6.5-5.7c-6.7-5-13.7-9.6-20.7-14.2
		c-8.9-5.8-17.8-11.6-26.7-17.4c-4.5-2.9-8.7-6.1-12.6-9.7c-2.8-2.7-5.3-5.6-7.3-8.9c-4.2-7-4.5-14.3-1.3-21.7
		c2.2-5.1,6-8.7,11.2-10.7c5.7-2.2,11.6-2.4,17.6-1.4c7,1.2,13.8,3.3,20.4,5.7c6.8,2.5,13.5,5.1,20.3,7.7c3.2,1.2,6.3,2.4,9.7,2.9
		c0.8,0.1,1.6,0.4,2.4,0.3c3.9-0.1,7.1-1.4,7.1-6.6c0-4.3-0.2-8.7-0.5-13c-1.6-23.5-2.2-47-1.3-70.5c0.6-15,2.2-29.9,5.5-44.5
		c4.6-20.4,13.1-38.9,25.8-55.6c23.3-30.8,54.2-50.4,91.1-60.8c20.2-5.7,40.8-7.6,61.7-6.9c22.1,0.7,43.5,4.8,64.1,12.8
		c19.6,7.6,37.4,18.1,52.8,32.4c19.4,18.1,34.3,39.1,42.4,64.7c3.7,11.5,6,23.4,7.4,35.4C777.8,441,777.9,459.6,777.7,478.3z"/>
</g>
<g id="Spotify" class="st0">
	<path class="st12" d="M600,84.2C315.1,84.2,84.2,315.1,84.2,600c0,284.9,231,515.8,515.8,515.8c284.9,0,515.8-230.9,515.8-515.8
		C1115.8,315.1,884.9,84.2,600,84.2z M836.6,828.2c-9.3,15.2-29.1,20-44.2,10.7c-121.1-74-273.6-90.8-453.1-49.7
		c-17.3,4-34.6-6.9-38.5-24.2c-4-17.3,6.8-34.5,24.2-38.5c196.5-44.9,365-25.6,501,57.5C841.1,793.2,845.8,813,836.6,828.2z
		 M899.7,687.7c-11.7,18.9-36.4,24.9-55.3,13.2c-138.6-85.2-350-109.9-514-60.1c-21.3,6.4-43.7-5.6-50.2-26.8
		c-6.4-21.3,5.6-43.7,26.8-50.2c187.4-56.8,420.2-29.3,579.5,68.5C905.4,644.1,911.3,668.8,899.7,687.7z M905.1,541.5
		c-166.3-98.7-440.5-107.8-599.3-59.6c-25.5,7.7-52.5-6.7-60.2-32.2c-7.7-25.5,6.7-52.4,32.2-60.2c182.2-55.3,485.1-44.6,676.5,69
		c22.9,13.6,30.5,43.2,16.8,66.1C957.6,547.5,928,555.1,905.1,541.5z"/>
</g>
<g id="LinkedIn" class="st0">
	<g class="st2">
		<path class="st13" d="M600,84.2c-284.9,0-515.8,231-515.8,515.8s230.9,515.8,515.8,515.8c284.9,0,515.8-230.9,515.8-515.8
			S884.9,84.2,600,84.2z M429.8,881.8c-36.7-0.4-73.4-0.3-110.1,0c-5.9,0-7.6-1.4-7.6-7.5c0.2-130.8,0.2-261.5,0-392.3
			c0-5.4,1.3-7.3,7-7.3c37.2,0.2,74.5,0.3,111.7,0c7.1-0.1,8.1,2.7,8.1,8.8c-0.2,65.1-0.1,130.2-0.1,195.4
			c0,64.6-0.1,129.2,0.1,193.8C439,879.8,437.2,881.9,429.8,881.8z M375.6,418.7c-39.9,0-73.1-33-73.3-73
			c-0.1-40.4,33-73.6,73.4-73.6c40.1,0,73.1,33,73.2,72.9C448.9,385.6,416,418.7,375.6,418.7z M913.6,873.5c0,6.7-1.9,8.4-8.4,8.4
			c-36.7-0.3-73.4-0.3-110.1,0c-6.5,0.1-7.9-1.9-7.8-8c0.2-67.8,0.3-135.6,0-203.4c0-17-1.1-34-5.9-50.5
			c-8.8-30.4-30.6-45.9-62.5-44.3c-43.5,2.3-66.2,23.9-71.7,68.1c-1.3,10.6-1.9,21.1-1.9,31.8c0.1,65.9-0.1,131.9,0.2,197.8
			c0,6.6-1.6,8.5-8.3,8.5c-37-0.3-74-0.3-110.9,0c-5.9,0-7.7-1.6-7.6-7.5c0.2-130.6,0.2-261.1,0-391.7c0-6.5,2.1-8,8.2-7.9
			c35.1,0.3,70.2,0.3,105.3,0c6.5-0.1,8.1,2,8,8.2c-0.4,15.6-0.1,31.2-0.1,46.8c8.5-9.5,15.5-19.2,24.2-27.4
			c26.8-25.2,58.4-37.9,95.3-37.6c20.3,0.2,40.4,1.6,59.9,7.3c44.8,13,70.8,43.8,83.2,87.5c9.3,32.8,11,66.5,11.1,100.3
			C913.8,730.9,913.4,802.2,913.6,873.5z"/>
	</g>
</g>
<g id="YouTube" class="st0">
	<path class="st12" d="M929.5,434.5c-7.9-29.6-31.2-52.9-60.8-60.8C815.1,359.3,600,359.3,600,359.3s-215.1,0-268.7,14.4
		c-29.6,7.9-52.9,31.2-60.8,60.8C256.1,488.1,256.1,600,256.1,600s0,111.9,14.4,165.5c7.9,29.6,31.2,52.9,60.8,60.8
		c53.6,14.4,268.7,14.4,268.7,14.4s215.1,0,268.7-14.4c29.6-7.9,52.9-31.2,60.8-60.8c14.4-53.6,14.4-165.5,14.4-165.5
		S943.9,488.1,929.5,434.5z M531.2,703.2V496.8L709.9,600L531.2,703.2z"/>
</g>
<g id="TikTok" class="st0">
	<path class="st12" d="M889,429.5c0-3-0.1-3.1-3.2-3.1c-7.6,0.1-15-0.8-22.5-2c-27-4.1-114.5-50-129.3-125.1
		c-0.3-1.5-3.6-20.1-3.6-28c0-3.6,0-3.6-3.5-3.6c-0.8,0-1.6,0-2.4,0c-34.3,0-68.5,0-102.8,0c-6.9,0-5.9-0.9-5.9,6.1
		c0,148.6,0,297.1,0,445.7c0,5.5-0.2,11.1-1.1,16.5c-5.2,28.7-19.9,51.2-44.8,66.6c-21.6,13.3-45,17.1-69.9,12.2
		c-7.8-1.6-15.2-4.5-22.6-7.4c-0.6-0.5-1.2-1.1-1.8-1.6c-2.5-2.1-5.2-3.8-7.9-5.6c-31.7-22-46.8-52.4-42.2-90.6
		c4.6-38.7,26.9-64.9,63.6-78.5c10.9-4,22.5-5.7,34.1-5.1c7.5,0.4,15,1.4,22.3,3.4c2.5,0.7,3.9-0.2,4-2.8c0-0.9,0.1-1.9,0.1-2.8
		c0-26.7-1-84.9-1.1-85.1c0.1-7.7,0-15.4,0.2-23c0-2.2-1.1-2.6-2.9-2.8c-13.8-1.6-27.6-2-41.5-0.9c-19.2,1.4-37.8,5.3-55.9,11.9
		c-28.9,10.4-54.2,26.4-76,47.8c-18.8,18.4-33.5,39.7-44.4,63.6c-10.4,22.9-16.3,47-17.9,72.1c-0.7,10.9-0.6,21.8,0.4,32.7
		c1.4,15.1,4.2,29.8,8.8,44.2c13.2,41.4,37.1,75.4,71.1,102.3c3.5,2.7,6.8,5.7,10.9,7.5c0,0,0,0,0,0c1.7,1.5,3.5,3.1,5.2,4.6
		c5.5,4.1,11.4,7.7,17.6,10.7c38.1,18.8,78.2,26.5,120.4,21.3c54.9-6.7,100.5-31,136.5-72.9c33.9-39.4,50.3-85.7,50.6-137.4
		c0.4-74,0.1-148,0.1-222c0-1.8-1-4.3,0.9-5.2c1.5-0.7,3.1,1.3,4.5,2.3c27.5,18.1,57.2,31.2,89.4,38.5c18.7,4.3,37.6,6.9,56.9,6.9
		c6.1,0,6.9-0.3,6.9-6.3C890.4,508.3,889,436.5,889,429.5z"/>
</g>
<g id="Pintrest" class="st0">
	<g class="st2">
		<g>
			<path class="st3" d="M600.4,83.3c-285.1,0-516.3,231.2-516.3,516.3c0,218.8,136,405.8,328.1,481c-4.7-40.8-8.5-103.7,1.7-148.3
				c9.3-40.4,60.3-256.7,60.3-256.7s-15.3-31-15.3-76.5c0-71.8,41.6-125.4,93.5-125.4c44.2,0,65.4,33.1,65.4,72.7
				c0,44.2-28,110.5-42.9,172.1C562.5,770,600.8,812,651.4,812c91.8,0,162.3-96.9,162.3-236.3c0-123.7-88.8-209.9-215.9-209.9
				c-147,0-233.3,110.1-233.3,223.9c0,44.2,17,91.8,38.2,117.7c4.2,5.1,4.7,9.8,3.4,14.9c-3.8,16.1-12.7,51.4-14.4,58.6
				c-2.1,9.3-7.6,11.5-17.4,6.8c-64.6-30.2-105-124.1-105-200.1c0-162.8,118.1-312.3,341.2-312.3c178.9,0,318.3,127.5,318.3,298.3
				c0,178.1-112.2,321.3-267.7,321.3c-52.3,0-101.6-27.2-118.1-59.5c0,0-25.9,98.6-32.3,122.8c-11.5,45-42.9,101.1-64.2,135.6
				c48.4,14.9,99.4,22.9,153,22.9c285.1,0,516.3-231.2,516.3-516.3C1116.7,314.4,885.5,83.3,600.4,83.3z"/>
		</g>
	</g>
</g>
<g id="Twitter">
	<g>
		<path class="st13" d="M495.8,897.1c251.9,0,389.7-208.7,389.7-389.7c0-5.9-0.1-11.8-0.4-17.7c26.7-19.3,50-43.5,68.3-70.9
			c-24.5,10.9-51,18.2-78.7,21.6c28.3-17,50-43.8,60.2-75.8c-26.5,15.7-55.8,27.1-87,33.2c-25-26.6-60.6-43.3-100-43.3
			c-75.6,0-137,61.3-137,137c0,10.8,1.2,21.2,3.6,31.2c-113.8-5.7-214.8-60.2-282.3-143.1c-11.8,20.2-18.6,43.8-18.6,68.8
			c0,47.5,24.2,89.5,61,114c-22.5-0.7-43.6-6.9-62-17.1c0,0.6,0,1.1,0,1.7c0,66.3,47.2,121.7,109.9,134.3
			c-11.5,3.1-23.6,4.8-36.1,4.8c-8.8,0-17.4-0.9-25.7-2.5c17.4,54.4,68,94,128,95.1c-46.9,36.7-105.9,58.6-170.1,58.6
			c-11.1,0-22-0.6-32.7-1.9C346.4,874.4,418.4,897.1,495.8,897.1"/>
	</g>
</g>
<g id="Whatsapp" class="st0">
	<g id="WA_Logo_00000073718373383213490110000006563344515028272007_" class="st2">
		<g>
			<path class="st6" d="M848.1,358.2c-61.8-61.8-143.9-95.9-231.5-95.9c-180.4,0-327.2,146.7-327.2,327.1
				c0,57.7,15,113.9,43.7,163.5l-46.4,169.5l173.5-45.5c47.8,26.1,101.6,39.8,156.4,39.8h0.1c0,0,0,0,0,0
				c180.3,0,327.2-146.8,327.2-327.1C943.9,502.2,909.9,420,848.1,358.2z M616.7,861.5h-0.1c-48.8,0-96.7-13.1-138.4-37.9l-9.9-5.9
				l-102.9,27l27.5-100.3l-6.5-10.3c-27.2-43.3-41.6-93.3-41.6-144.7c0.1-149.9,122.1-271.9,272.1-271.9
				c72.6,0,140.9,28.3,192.3,79.7c51.4,51.4,79.6,119.7,79.6,192.4C888.6,739.5,766.6,861.5,616.7,861.5z M765.8,657.9
				c-8.2-4.1-48.4-23.9-55.9-26.6c-7.5-2.7-12.9-4.1-18.4,4.1c-5.5,8.2-21.1,26.6-25.9,32c-4.8,5.5-9.5,6.1-17.7,2
				c-8.2-4.1-34.5-12.7-65.8-40.6c-24.3-21.7-40.7-48.4-45.5-56.6c-4.8-8.2-0.5-12.6,3.6-16.7c3.7-3.7,8.2-9.5,12.3-14.3
				c4.1-4.8,5.5-8.2,8.2-13.6c2.7-5.5,1.4-10.2-0.7-14.3c-2-4.1-18.4-44.3-25.2-60.7c-6.6-15.9-13.4-13.8-18.4-14
				c-4.8-0.2-10.2-0.3-15.7-0.3c-5.5,0-14.3,2-21.8,10.2c-7.5,8.2-28.6,28-28.6,68.2c0,40.2,29.3,79.1,33.4,84.6
				s57.7,88,139.7,123.4c19.5,8.4,34.7,13.4,46.6,17.2c19.6,6.2,37.4,5.3,51.5,3.2c15.7-2.3,48.4-19.8,55.2-38.9
				c6.8-19.1,6.8-35.5,4.8-38.9C779.5,664,774,662,765.8,657.9z"/>
		</g>
	</g>
</g>
<g id="Instagram" class="st0">
	<path class="st14" d="M600,333.7c86.7,0,97,0.3,131.2,1.9c31.7,1.4,48.9,6.7,60.3,11.2c15.2,5.9,26,12.9,37.3,24.3
		c11.4,11.4,18.4,22.2,24.3,37.3c4.4,11.4,9.7,28.6,11.2,60.3c1.6,34.2,1.9,44.5,1.9,131.2s-0.3,97-1.9,131.2
		c-1.4,31.7-6.7,48.9-11.2,60.3c-5.9,15.2-12.9,26-24.3,37.3c-11.4,11.4-22.2,18.4-37.3,24.3c-11.4,4.4-28.6,9.7-60.3,11.2
		c-34.2,1.6-44.5,1.9-131.2,1.9c-86.7,0-97-0.3-131.2-1.9c-31.7-1.4-48.9-6.7-60.3-11.2c-15.2-5.9-26-12.9-37.3-24.3
		c-11.4-11.4-18.4-22.2-24.3-37.3c-4.4-11.4-9.7-28.6-11.2-60.3c-1.6-34.2-1.9-44.5-1.9-131.2s0.3-97,1.9-131.2
		c1.4-31.7,6.7-48.9,11.2-60.3c5.9-15.2,12.9-26,24.3-37.3c11.4-11.4,22.2-18.4,37.3-24.3c11.4-4.4,28.6-9.7,60.3-11.2
		C503,334.1,513.3,333.7,600,333.7 M600,275.2c-88.2,0-99.3,0.4-133.9,2c-34.6,1.6-58.2,7.1-78.8,15.1
		c-21.4,8.3-39.5,19.4-57.5,37.5c-18.1,18.1-29.2,36.2-37.5,57.5c-8,20.7-13.5,44.3-15.1,78.8c-1.6,34.6-2,45.7-2,133.9
		c0,88.2,0.4,99.3,2,133.9c1.6,34.6,7.1,58.2,15.1,78.8c8.3,21.4,19.4,39.5,37.5,57.5c18.1,18.1,36.2,29.2,57.5,37.5
		c20.7,8,44.3,13.5,78.8,15.1c34.6,1.6,45.7,2,133.9,2c88.2,0,99.3-0.4,133.9-2c34.6-1.6,58.2-7.1,78.8-15.1
		c21.4-8.3,39.5-19.4,57.5-37.5c18.1-18.1,29.2-36.2,37.5-57.5c8-20.7,13.5-44.3,15.1-78.8c1.6-34.6,2-45.7,2-133.9
		s-0.4-99.3-2-133.9c-1.6-34.6-7.1-58.2-15.1-78.8c-8.3-21.4-19.4-39.5-37.5-57.5c-18.1-18.1-36.2-29.2-57.5-37.5
		c-20.7-8-44.3-13.5-78.8-15.1C699.3,275.6,688.2,275.2,600,275.2L600,275.2z"/>
	<path class="st14" d="M600,433.2c-92.1,0-166.8,74.7-166.8,166.8S507.9,766.8,600,766.8c92.1,0,166.8-74.7,166.8-166.8
		S692.1,433.2,600,433.2z M600,708.3c-59.8,0-108.3-48.5-108.3-108.3S540.2,491.7,600,491.7S708.3,540.2,708.3,600
		S659.8,708.3,600,708.3z"/>
	<circle class="st14" cx="773.4" cy="426.6" r="39"/>
</g>
<g id="Messanger" class="st0">
	<path class="st10" d="M600,217.9c-219.5,0-389.7,160.8-389.7,378.1c0,113.6,46.6,211.8,122.4,279.6c6.4,5.7,10.2,13.7,10.5,22.2
		l2.1,69.3c0.7,22.1,23.5,36.5,43.8,27.6l77.4-34.2c6.5-2.9,13.9-3.4,20.8-1.5c35.5,9.8,73.4,15,112.8,15
		c219.5,0,389.7-160.8,389.7-378C989.7,378.7,819.5,217.9,600,217.9z M834,508.8L719.5,690.4c-18.2,28.9-57.2,36.1-84.5,15.6
		L544,637.7c-8.4-6.3-19.9-6.2-28.2,0.1l-123,93.3c-16.4,12.4-37.8-7.2-26.9-24.6l114.5-181.6c18.2-28.9,57.2-36.1,84.5-15.6
		l91.1,68.3c8.4,6.3,19.9,6.2,28.2-0.1l123-93.3C823.6,471.7,845,491.3,834,508.8z"/>
</g>
<g id="Facebook" class="st0">
	<path class="st14" d="M1115.8,600c0-284.9-230.9-515.8-515.8-515.8S84.2,315.1,84.2,600c0,257.5,188.6,470.9,435.2,509.6V749.1
		h-131V600h131V486.4c0-129.3,77-200.7,194.8-200.7c56.4,0,115.5,10.1,115.5,10.1v126.9h-65c-64.1,0-84.1,39.8-84.1,80.6V600h143.1
		l-22.9,149.1H680.6v360.5C927.2,1070.9,1115.8,857.5,1115.8,600z"/>
</g>
</svg>
